<svg xmlns="http://www.w3.org/2000/svg" style="enable-background:new 0 0 512 512" xml:space="preserve" viewBox="0 0 512 512">
  <path d="m464.971 103.029-72-72a24 24 0 0 0-33.942 0l-72 72a24 24 0 0 0 33.942 33.942L352 105.941v86.439a71.091 71.091 0 0 1-44.912 66.329A118.925 118.925 0 0 0 256 297.822a118.922 118.922 0 0 0-51.089-39.113A71.091 71.091 0 0 1 160 192.38v-86.439l31.029 31.03a24 24 0 0 0 33.942-33.942l-72-72a24 24 0 0 0-33.942 0l-72 72a24 24 0 0 0 33.942 33.942L112 105.941v86.439a119.434 119.434 0 0 0 75.088 110.9A71.094 71.094 0 0 1 232 369.606V464a24 24 0 0 0 48 0v-94.394a71.1 71.1 0 0 1 44.911-66.329A119.433 119.433 0 0 0 400 192.38v-86.439l31.029 31.03a24 24 0 0 0 33.942-33.942z" data-original="#000000"/>
</svg>
