<svg class="h-[16px] w-[16px] text-white" fill="none" xmlns="http://www.w3.org/2000/svg" viewBox="0 0 28 29">
  <path d="M23.1015 1.01616c-.919-.00174-1.8089.32179-2.5121.9133-.7033.59152-1.1745 1.41283-1.3302 2.31848-.1557.90564.0141 1.83718.4794 2.62961s1.196 1.39462 2.0628 1.6999v4.13945H6.20035V8.57745c.86744-.30668 1.59853-.91015 2.06406-1.70373.46553-.79359.63553-1.7262.47994-2.633-.15558-.90681-.62673-1.72942-1.33016-2.32244C6.71075 1.32526 5.82032 1 4.90027 1c-.92006 0-1.81049.32526-2.51393.91828-.70343.59302-1.17458 1.41563-1.33016 2.32244-.155586.9068.01441 1.83941.47994 2.633.46553.79358 1.19662 1.39705 2.06406 1.70373v4.13945c0 .6896.27395 1.351.76157 1.8386.48763.4877 1.14899.7616 1.8386.7616h6.50045v5.4396c-.8675.3066-1.5985.9101-2.0641 1.7037-.4655.7936-.6355 1.7262-.4799 2.633.1556.9068.6267 1.7294 1.3301 2.3224.7035.5931 1.5939.9183 2.514.9183.92 0 1.8105-.3252 2.5139-.9183.7034-.593 1.1746-1.4156 1.3302-2.3224.1555-.9068-.0145-1.8394-.48-2.633-.4655-.7936-1.1966-1.3971-2.064-1.7037v-5.4396h6.5004c.6896 0 1.351-.2739 1.8386-.7616.4876-.4876.7615-1.149.7615-1.8386V8.57745c.8668-.30528 1.5975-.90747 2.0628-1.6999.4653-.79243.6351-1.72397.4794-2.62961-.1557-.90565-.6269-1.72696-1.3302-2.31848-.7032-.59151-1.5931-.91504-2.512-.9133ZM4.90027 6.2165c-.25714 0-.5085-.07625-.72229-.21911-.2138-.14285-.38044-.3459-.47884-.58346-.0984-.23756-.12414-.49896-.07398-.75115.05016-.25219.17399-.48385.35581-.66567.18182-.18182.41347-.30564.66566-.3558.25219-.05017.5136-.02442.75116.07398.23756.0984.4406.26504.58346.47883.14285.2138.2191.46516.2191.72229 0 .34481-.13697.67549-.38079.9193-.24381.24382-.57449.38079-.91929.38079Zm9.10063 19.5013c-.2572 0-.5085-.0763-.7223-.2191-.2138-.1429-.3805-.3459-.4789-.5835-.0984-.2375-.1241-.4989-.0739-.7511.0501-.2522.1739-.4839.3558-.6657.1818-.1818.4134-.3056.6656-.3558.2522-.0502.5136-.0244.7512.074.2375.0984.4406.265.5834.4788.1429.2138.2192.4652.2192.7223 0 .3448-.137.6755-.3808.9193-.2438.2438-.5745.3808-.9193.3808Zm9.1006-19.5013c-.2572 0-.5085-.07625-.7223-.21911-.2138-.14285-.3805-.3459-.4789-.58346-.0984-.23756-.1241-.49896-.0739-.75115.0501-.25219.1739-.48385.3558-.66567.1818-.18182.4134-.30564.6656-.3558.2522-.05017.5136-.02442.7512.07398.2375.0984.4406.26504.5834.47883.1429.2138.2191.46516.2191.72229 0 .34481-.1369.67549-.3807.9193-.2438.24382-.5745.38079-.9193.38079Z" fill="currentColor" stroke="currentColor" stroke-width=".25"/>
</svg>
