<svg xmlns="http://www.w3.org/2000/svg" viewBox="0 0 24 24" style="enable-background:new 0 0 512 512" xml:space="preserve" fill-rule="evenodd">
  <path d="M12 1.25c5.933 0 10.75 4.817 10.75 10.75S17.933 22.75 12 22.75 1.25 17.933 1.25 12 6.067 1.25 12 1.25zm0 1.5c-5.105 0-9.25 4.145-9.25 9.25s4.145 9.25 9.25 9.25 9.25-4.145 9.25-9.25S17.105 2.75 12 2.75z" data-original="#000000"/>
  <path d="M16.438 10.633a1.556 1.556 0 0 1 .001 2.734l-6.386 3.483a1.557 1.557 0 0 1-2.303-1.367V8.517a1.557 1.557 0 0 1 2.303-1.367zm-.718 1.317L9.334 8.467a.054.054 0 0 0-.056.001.058.058 0 0 0-.028.049v6.966c0 .02.011.039.028.049a.055.055 0 0 0 .057.001l6.385-3.483c.019-.01.03-.029.03-.05s-.011-.04-.03-.05z" data-original="#000000"/>
</svg>
