<?xml version="1.0" encoding="UTF-8"?>
<svg id="Layer_1" xmlns="http://www.w3.org/2000/svg" xmlns:xlink="http://www.w3.org/1999/xlink" version="1.1" viewBox="0 0 2500 2500">
  <!-- Generator: Adobe Illustrator 30.1.0, SVG Export Plug-In . SVG Version: 2.1.1 Build 136)  -->
  <defs>
    <style>
      .st0 {
        fill: url(#linear-gradient2);
      }

      .st1 {
        fill: url(#linear-gradient1);
      }

      .st2 {
        fill: url(#linear-gradient);
      }

      .st3 {
        fill: #0078d4;
      }
    </style>
    <linearGradient id="linear-gradient" x1="1028.76" y1="1746.35" x2="782.76" y2="1019.65" gradientTransform="translate(-2107.85 5698.6) scale(3.12 -3.12)" gradientUnits="userSpaceOnUse">
      <stop offset="0" stop-color="#114a8b"/>
      <stop offset="1" stop-color="#0669bc"/>
    </linearGradient>
    <linearGradient id="linear-gradient1" x1="1105.53" y1="1407.68" x2="1048.63" y2="1388.38" gradientTransform="translate(-2107.85 5698.6) scale(3.12 -3.12)" gradientUnits="userSpaceOnUse">
      <stop offset="0" stop-color="#000" stop-opacity=".3"/>
      <stop offset=".1" stop-color="#000" stop-opacity=".2"/>
      <stop offset=".3" stop-color="#000" stop-opacity=".1"/>
      <stop offset=".6" stop-color="#000" stop-opacity=".1"/>
      <stop offset="1" stop-color="#000" stop-opacity="0"/>
    </linearGradient>
    <linearGradient id="linear-gradient2" x1="1075.91" y1="1768.21" x2="1345.91" y2="1048.91" gradientTransform="translate(-2107.85 5698.6) scale(3.12 -3.12)" gradientUnits="userSpaceOnUse">
      <stop offset="0" stop-color="#3ccbf4"/>
      <stop offset="1" stop-color="#2892df"/>
    </linearGradient>
  </defs>
  <path class="st2" d="M833.95,72.89h738.9l-767.05,2274.04c-3.92,11.61-9.63,22.55-16.92,32.4-7.27,9.86-16.04,18.51-26,25.66s-20.95,12.7-32.62,16.45-23.85,5.68-36.08,5.68H119.12c-18.67,0-37.08-4.43-53.69-12.99-16.62-8.53-30.97-20.9-41.86-36.09-10.89-15.19-18.02-32.74-20.79-51.22C0,2308.34,1.69,2289.45,7.65,2271.76L722.29,153.02c3.9-11.61,9.61-22.54,16.92-32.4,7.27-9.86,16.08-18.51,26-25.66,9.96-7.15,20.95-12.7,32.62-16.45,11.67-3.75,23.85-5.68,36.08-5.68v.03l.03.03Z"/>
  <path class="st3" d="M2196.06,2427.11h-663.48c-7.4,0-14.8-.69-22.1-2.09-7.27-1.37-14.42-3.43-21.32-6.15s-13.52-6.09-19.79-10.02c-6.27-3.96-12.15-8.5-17.57-13.55l-752.91-703.16c-7.96-7.44-13.51-17.09-15.92-27.72-4.93-21.75,3.95-44.29,22.38-56.84,9.02-6.12,19.67-9.4,30.56-9.4h1171.7l288.4,828.95.06-.03Z"/>
  <path class="st1" d="M1575.5,72.89l-517.24,1525.46,845.12-.19,289.9,828.95h-660.98c-6.84-.06-13.67-.69-20.41-1.9s-13.36-3-19.79-5.37c-12.89-4.7-24.89-11.57-35.46-20.32l-508.25-474.35-142.28,419.6c-3.68,10.49-8.74,20.45-15.05,29.59-12.64,18.4-29.92,33.12-50.1,42.67-10.05,4.75-20.68,8.14-31.62,10.08H119.46c-18.85.06-37.46-4.43-54.22-13.11-34.02-17.6-57.34-50.66-62.49-88.62-2.53-18.71-.53-37.76,5.84-55.53L722.07,154.61c3.71-11.83,9.3-22.97,16.54-33.03,7.21-10.05,16.01-18.92,26-26.22,9.99-7.3,21.1-12.99,32.87-16.79,11.77-3.81,24.1-5.74,36.49-5.68h741.55-.03Z"/>
  <path class="st0" d="M2492.35,2271.76c5.97,17.71,7.64,36.58,4.9,55.06-2.77,18.48-9.89,36.03-20.76,51.22-22.09,30.79-57.66,49.06-95.55,49.07h-823.52c18.67,0,37.08-4.46,53.72-12.99,16.61-8.52,30.97-20.91,41.86-36.08s18.01-32.74,20.79-51.22,1.09-37.36-4.87-55.06L954.25,152.95c-7.87-23.34-22.86-43.62-42.86-58-9.93-7.15-20.91-12.67-32.56-16.42s-23.82-5.65-36.02-5.65h823.49c12.24,0,24.38,1.9,36.05,5.65,11.64,3.75,22.63,9.3,32.59,16.42,9.93,7.15,18.7,15.79,25.97,25.63s12.95,20.76,16.89,32.37l714.67,2118.8h-.12Z"/>
</svg>