<?xml version="1.0" encoding="UTF-8"?>
<svg id="Layer_1" xmlns="http://www.w3.org/2000/svg" version="1.1" viewBox="0 0 584 584">
  <!-- Generator: Adobe Illustrator 30.1.0, SVG Export Plug-In . SVG Version: 2.1.1 Build 136)  -->
  <defs>
    <style>
      .st0 {
        fill: #0061ff;
      }

      .st1 {
        display: none;
      }
    </style>
  </defs>
  <path class="st0" d="M292.39,133.82l-145.06,92.59,145.06,92.59-145.06,92.59L2.26,318.23l145.06-92.59L2.26,133.82,147.32,41.23l145.06,92.59ZM146.55,440.92l145.06-92.59,145.06,92.59-145.06,92.59-145.06-92.59ZM292.39,318.23l145.06-92.59-145.06-91.82,144.29-92.59,145.06,92.59-145.06,92.59,145.06,92.59-145.06,92.59-144.29-93.36Z"/>
  <g id="Editble" class="st1">
    <path d="M3.81,146.17h125.77c80.25,0,146.6,47.07,146.6,152.78v22.38c0,106.48-61.73,154.32-144.29,154.32H3.81V146.17ZM74.79,205.58v209.88h54.01c45.52,0,76.39-30.09,76.39-96.45v-16.98c0-66.36-31.64-96.45-78.7-96.45h-51.7ZM313.99,209.44h56.33l8.49,61.73c10.8-42.44,37.81-64.04,87.19-64.04h16.98v70.99h-28.55c-57.1,0-70.99,20.06-70.99,76.39v121.91h-69.44V209.44h0ZM498.4,348.33v-7.72c0-89.51,57.1-138.12,135.03-138.12s135.03,49.38,135.03,138.12v7.72c0,87.96-54.01,135.03-135.03,135.03-86.42,0-135.03-47.07-135.03-135.03ZM697.48,347.56v-6.17c0-50.15-24.69-79.48-64.04-79.48s-64.81,27.01-64.81,79.48v6.17c0,47.84,24.69,74.85,64.04,74.85s64.81-26.23,64.81-74.85ZM804.73,209.44h58.64l6.94,50.93c14.66-33.95,43.98-57.1,87.96-57.1,67.9,0,112.65,49.38,112.65,138.89v7.72c0,87.96-49.38,133.49-112.65,133.49-42.44,0-70.99-19.29-84.88-50.15v135.03h-68.67V209.44ZM999.95,348.33v-6.17c0-53.24-27.01-79.48-64.04-79.48s-64.81,29.32-64.81,79.48v5.4c0,47.07,24.69,77.16,63.27,77.16,40.12-1.54,65.59-27.78,65.59-76.39h0ZM1172.79,427.8l-5.4,48.61h-60.19V119.93h67.9v137.35c14.66-34.72,44.75-54.01,86.42-54.01,63.27.77,110.34,44.75,110.34,133.49v7.72c0,88.73-44.75,138.89-112.65,138.89-43.21,0-72.53-21.6-86.42-55.56ZM1302.42,344.47v-6.17c0-49.38-27.01-75.62-64.04-75.62s-64.81,30.86-64.81,77.16v5.4c0,50.15,25.46,78.7,64.04,78.7,40.12-.77,64.81-27.01,64.81-79.48h0ZM1403.5,348.33v-7.72c0-89.51,57.1-138.12,135.03-138.12s135.03,49.38,135.03,138.12v7.72c0,87.96-54.78,135.03-135.03,135.03-86.42,0-135.03-47.07-135.03-135.03ZM1602.57,347.56v-6.17c0-50.15-24.69-79.48-64.04-79.48s-64.81,27.01-64.81,79.48v6.17c0,47.84,24.69,74.85,64.04,74.85s64.81-26.23,64.81-74.85ZM1763.84,337.52l-93.36-128.86h80.25l54.01,80.25,54.78-80.25h79.48l-94.91,128.09,100.31,138.89h-78.7l-61.73-88.73-59.41,88.73h-81.79l101.08-138.12Z"/>
  </g>
</svg>