<svg width="500" height="500" viewBox="0 0 500 500" fill="none" xmlns="http://www.w3.org/2000/svg">
<g clip-path="url(#clip0_1378_2345)">
<path d="M250 500C388.071 500 500 388.071 500 250C500 111.929 388.071 0 250 0C111.929 0 0 111.929 0 250C0 388.071 111.929 500 250 500Z" fill="white"/>
<g clip-path="url(#clip1_1378_2345)">
<path d="M253.877 214.627V289.711H358.219C353.637 313.858 339.887 334.304 319.266 348.052L382.188 396.874C418.849 363.035 439.999 313.331 439.999 254.286C439.999 240.539 438.766 227.319 436.474 214.63L253.877 214.627Z" fill="#4285F4"/>
<path d="M145.223 286.781L131.032 297.644L80.7988 336.771C112.701 400.046 178.086 443.757 253.874 443.757C306.22 443.757 350.106 426.484 382.185 396.874L319.263 348.052C301.99 359.685 279.958 366.735 253.874 366.735C203.466 366.735 160.638 332.719 145.302 286.892L145.223 286.781Z" fill="#34A853"/>
<path d="M80.7983 162.986C67.5801 189.07 60.002 218.505 60.002 249.878C60.002 281.25 67.5801 310.685 80.7983 336.769C80.7983 336.944 145.308 286.713 145.308 286.713C141.431 275.081 139.139 262.744 139.139 249.876C139.139 237.007 141.431 224.67 145.308 213.038L80.7983 162.986Z" fill="#FBBC05"/>
<path d="M253.878 133.199C282.431 133.199 307.811 143.069 328.081 162.104L383.6 106.585C349.935 75.2128 306.226 56 253.878 56C178.09 56 112.701 99.5345 80.7988 162.986L145.307 213.042C160.64 167.216 203.47 133.199 253.878 133.199Z" fill="#EA4335"/>
</g>
</g>
<defs>
<clipPath id="clip0_1378_2345">
<rect width="500" height="500" fill="white"/>
</clipPath>
<clipPath id="clip1_1378_2345">
<rect width="380" height="387.755" fill="white" transform="translate(60 56)"/>
</clipPath>
</defs>
</svg>
