<?xml version="1.0" encoding="UTF-8"?>
<svg id="Layer_1" xmlns="http://www.w3.org/2000/svg" version="1.1" viewBox="0 0 360 360">
  <!-- Generator: Adobe Illustrator 30.1.0, SVG Export Plug-In . SVG Version: 2.1.1 Build 136)  -->
  <defs>
    <style>
      .st0 {
        fill: #225086;
      }

      .st1 {
        fill: #96bcc2;
      }

      .st2 {
        fill: #074793;
      }

      .st3 {
        fill: #cbf8ff;
      }

      .st4 {
        fill: #0294e4;
      }

      .st5 {
        fill: #6df;
      }
    </style>
  </defs>
  <path class="st0" d="M78.32,278.44c7.59,4.73,20.21,10,33.55,10,12.15,0,23.44-3.52,32.79-9.53,0,0,.02,0,.04-.02l35.31-22.07v79.68c-5.59,0-11.23-1.53-16.12-4.58l-85.57-53.48h0Z"/>
  <path class="st5" d="M157.56,33.42L10.85,198.92c-11.33,12.79-8.37,32.12,6.32,41.3,0,0,54.31,33.94,61.15,38.23,7.59,4.73,20.21,10,33.55,10,12.15,0,23.44-3.52,32.79-9.53,0,0,.02,0,.04-.02l35.31-22.07-85.37-53.37,85.39-96.33V23.5h0c-8.29,0-16.57,3.31-22.44,9.92h-.03Z"/>
  <polygon class="st3" points="94.63 203.46 95.65 204.08 180 256.82 180.02 256.82 180.02 256.82 180.02 107.15 180 107.13 94.63 203.46"/>
  <path class="st2" d="M342.84,240.21c14.69-9.17,17.65-28.5,6.32-41.3l-96.27-108.59c-7.77-3.62-16.47-5.69-25.69-5.69-18.1,0-34.27,7.81-45.03,20.07l-2.13,2.41h0l85.37,96.33h0l-85.39,53.37v79.68c5.61,0,11.21-1.53,16.1-4.58l146.72-91.71v.02h0Z"/>
  <path class="st4" d="M180.02,23.5v83.63l2.13-2.41c10.76-12.27,26.94-20.07,45.03-20.07,9.23,0,17.92,2.09,25.69,5.69l-50.45-56.91c-5.85-6.6-14.14-9.91-22.42-9.91l.02-.02Z"/>
  <polygon class="st1" points="265.39 203.46 265.39 203.46 265.39 203.46 180.02 107.15 180.02 256.8 265.39 203.46"/>
</svg>