<?xml version="1.0" encoding="UTF-8"?>
<svg id="Layer_1" xmlns="http://www.w3.org/2000/svg" version="1.1" viewBox="0 0 256 256">
  <!-- Generator: Adobe Illustrator 30.1.0, SVG Export Plug-In . SVG Version: 2.1.1 Build 136)  -->
  <defs>
    <style>
      .st0 {
        fill: #2eb67d;
      }

      .st1 {
        fill: #36c5f0;
      }

      .st2 {
        fill: #ecb22e;
      }

      .st3 {
        fill: #e01e5a;
      }
    </style>
  </defs>
  <path class="st3" d="M53.97,161.81c0,14.87-12.02,26.88-26.88,26.88S.2,176.67.2,161.81s12.02-26.88,26.88-26.88h26.88v26.88ZM67.41,161.81c0-14.87,12.02-26.88,26.88-26.88s26.88,12.02,26.88,26.88v67.21c0,14.87-12.02,26.88-26.88,26.88s-26.88-12.02-26.88-26.88v-67.21Z"/>
  <path class="st1" d="M94.29,53.87c-14.87,0-26.88-12.02-26.88-26.88S79.43.1,94.29.1s26.88,12.02,26.88,26.88v26.88h-26.88ZM94.29,67.51c14.87,0,26.88,12.02,26.88,26.88s-12.02,26.88-26.88,26.88H26.88c-14.87,0-26.88-12.02-26.88-26.88s12.02-26.88,26.88-26.88h67.41Z"/>
  <path class="st0" d="M202.03,94.4c0-14.87,12.02-26.88,26.88-26.88s26.88,12.02,26.88,26.88-12.02,26.88-26.88,26.88h-26.88v-26.88ZM188.59,94.4c0,14.87-12.02,26.88-26.88,26.88s-26.88-12.02-26.88-26.88V26.98c0-14.87,12.02-26.88,26.88-26.88s26.88,12.02,26.88,26.88v67.41Z"/>
  <path class="st2" d="M161.71,202.13c14.87,0,26.88,12.02,26.88,26.88s-12.02,26.88-26.88,26.88-26.88-12.02-26.88-26.88v-26.88h26.88ZM161.71,188.69c-14.87,0-26.88-12.02-26.88-26.88s12.02-26.88,26.88-26.88h67.41c14.87,0,26.88,12.02,26.88,26.88s-12.02,26.88-26.88,26.88h-67.41Z"/>
</svg>