<?xml version="1.0" encoding="UTF-8"?>
<svg id="Layer_1" xmlns="http://www.w3.org/2000/svg" version="1.1" viewBox="0 0 192 192">
  <!-- Generator: Adobe Illustrator 30.2.1, SVG Export Plug-In . SVG Version: 2.1.1 Build 1)  -->
  <defs>
    <style>
      .st0 {
        fill: #2eb67d;
      }

      .st1 {
        fill: #36c5f0;
      }

      .st2 {
        fill: #4a154b;
      }

      .st3 {
        fill: #ecb22e;
      }

      .st4 {
        fill: #e01e5a;
      }

      .st5 {
        display: none;
      }
    </style>
  </defs>
  <g id="Editble" class="st5">
    <path d="M-192.19-49.83h125.77C13.83-49.83,80.18-2.76,80.18,102.95v22.38c0,106.48-61.73,154.32-144.29,154.32h-128.08V-49.83ZM-121.21,9.58v209.88h54.01c45.52,0,76.39-30.09,76.39-96.45v-16.98C9.19,39.67-22.45,9.58-69.51,9.58h-51.7ZM117.99,13.44h56.33l8.49,61.73c10.8-42.44,37.81-64.04,87.19-64.04h16.98v70.99h-28.55c-57.1,0-70.99,20.06-70.99,76.39v121.91h-69.44V13.44h-.01ZM302.4,152.33v-7.72c0-89.51,57.1-138.12,135.03-138.12s135.03,49.38,135.03,138.12v7.72c0,87.96-54.01,135.03-135.03,135.03-86.42,0-135.03-47.07-135.03-135.03h0ZM501.48,151.56v-6.17c0-50.15-24.69-79.48-64.04-79.48s-64.81,27.01-64.81,79.48v6.17c0,47.84,24.69,74.85,64.04,74.85s64.81-26.23,64.81-74.85ZM608.73,13.44h58.64l6.94,50.93c14.66-33.95,43.98-57.1,87.96-57.1,67.9,0,112.65,49.38,112.65,138.89v7.72c0,87.96-49.38,133.49-112.65,133.49-42.44,0-70.99-19.29-84.88-50.15v135.03h-68.67V13.44h0ZM803.95,152.33v-6.17c0-53.24-27.01-79.48-64.04-79.48s-64.81,29.32-64.81,79.48v5.4c0,47.07,24.69,77.16,63.27,77.16,40.12-1.54,65.59-27.78,65.59-76.39h-.01ZM976.79,231.8l-5.4,48.61h-60.19V-76.07h67.9V61.28c14.66-34.72,44.75-54.01,86.42-54.01,63.27.77,110.34,44.75,110.34,133.49v7.72c0,88.73-44.75,138.89-112.65,138.89-43.21,0-72.53-21.6-86.42-55.56h0ZM1106.42,148.47v-6.17c0-49.38-27.01-75.62-64.04-75.62s-64.81,30.86-64.81,77.16v5.4c0,50.15,25.46,78.7,64.04,78.7,40.12-.77,64.81-27.01,64.81-79.48h0ZM1207.5,152.33v-7.72c0-89.51,57.1-138.12,135.03-138.12s135.03,49.38,135.03,138.12v7.72c0,87.96-54.78,135.03-135.03,135.03-86.42,0-135.03-47.07-135.03-135.03h0ZM1406.57,151.56v-6.17c0-50.15-24.69-79.48-64.04-79.48s-64.81,27.01-64.81,79.48v6.17c0,47.84,24.69,74.85,64.04,74.85s64.81-26.23,64.81-74.85h0ZM1567.84,141.52l-93.36-128.86h80.25l54.01,80.25,54.78-80.25h79.48l-94.91,128.09,100.31,138.89h-78.7l-61.73-88.73-59.41,88.73h-81.79l101.08-138.12h0Z"/>
  </g>
  <rect class="st2" width="192" height="192" rx="48" ry="48"/>
  <g>
    <path class="st4" d="M58.99,112.91c0,7.43-6.01,13.44-13.44,13.44s-13.45-6.01-13.45-13.44,6.01-13.44,13.44-13.44h13.44v13.44h0ZM65.71,112.91c0-7.43,6.01-13.44,13.44-13.44s13.44,6.01,13.44,13.44v33.6c0,7.43-6.01,13.44-13.44,13.44s-13.44-6.01-13.44-13.44v-33.6Z"/>
    <path class="st1" d="M79.15,58.94c-7.44,0-13.44-6.01-13.44-13.44s6.01-13.44,13.44-13.44,13.44,6.01,13.44,13.44v13.44h-13.44ZM79.15,65.76c7.44,0,13.44,6.01,13.44,13.44s-6.01,13.44-13.44,13.44h-33.71c-7.43,0-13.44-6.01-13.44-13.44s6.01-13.44,13.44-13.44h33.71Z"/>
    <path class="st0" d="M133.01,79.2c0-7.44,6.01-13.44,13.44-13.44s13.44,6.01,13.44,13.44-6.01,13.44-13.44,13.44h-13.44v-13.44ZM126.29,79.2c0,7.44-6.01,13.44-13.44,13.44s-13.44-6.01-13.44-13.44v-33.71c0-7.43,6.01-13.44,13.44-13.44s13.44,6.01,13.44,13.44v33.7h0Z"/>
    <path class="st3" d="M112.86,133.07c7.43,0,13.44,6.01,13.44,13.44s-6.01,13.44-13.44,13.44-13.44-6.01-13.44-13.44v-13.44h13.44ZM112.86,126.35c-7.43,0-13.44-6.01-13.44-13.44s6.01-13.44,13.44-13.44h33.71c7.43,0,13.44,6.01,13.44,13.44s-6.01,13.44-13.44,13.44h-33.71,0Z"/>
  </g>
</svg>