<svg viewBox="0 0 1024 1024.4466" xmlns="http://www.w3.org/2000/svg">
  <path fill="#343a40" d="M206.54 324.823l7.516-3.84h595.888l7.516 3.84c4.954 2.53 8.614 6.002 10.74 10.186 4.026 7.92 4.37 22.707.692 29.575-1.484 2.77-66.672 78.322-144.862 167.892-98.608 112.96-144.07 163.834-148.384 166.048-13.218 6.784-34.044 6.788-47.292.01-4.324-2.214-49.542-52.814-148.382-166.048-78.188-89.576-143.376-165.132-144.86-167.902-3.682-6.866-3.34-21.652.688-29.576 2.126-4.185 5.786-7.657 10.74-10.187z"/>
</svg>
