<svg viewBox="0 0 1024 1024.4466" xmlns="http://www.w3.org/2000/svg"><path fill="white" d="M577.846 243.197c8.864-3.728 12.084-4.176 26.314-3.66 19.116.694 28.362 4.572 42.448 17.802 4.786 4.497 52.898 54.64 106.914 111.43 91.55 96.25 105.798 110.86 108.742 127.47.622 3.51.738 7.11.974 11.585.838 15.952-1.876 26.778-9.58 38.22-8.052 11.958-210.354 225.214-218.644 230.484-14.628 9.295-35.938 11.787-52.832 6.175-12.284-4.08-25.984-17.02-32.908-31.086-10.066-20.447-8.556-47.247 3.706-65.76 2.902-4.38 26.916-30.477 53.366-57.993l48.09-50.032-221.832-.852-221.83-.854-9.954-4.015c-13.98-5.64-25.172-15.49-32.278-28.412-17.92-32.582-5.17-73.688 27.724-89.388l9.388-4.48 225.262-.852 225.264-.854-51.406-52.255c-47.388-48.17-51.92-53.298-58.008-65.618-6.122-12.386-6.606-14.44-6.606-28.048 0-13.493.512-15.715 6.3-27.397 7.726-15.592 18.072-26.014 31.386-31.616z"/></svg>
