<svg id="Layer_1" xmlns="http://www.w3.org/2000/svg" version="1.1" viewBox="0 0 450 254">
  <defs>
    <linearGradient id="linear-gradient" x1="204.9" y1="267.53" x2="287.9" y2="31.67" gradientTransform="matrix(1 0 0 -1 0 256)" gradientUnits="userSpaceOnUse">
      <stop offset="0" stop-color="#fff"/>
      <stop offset="1" stop-color="#fff" stop-opacity="0"/>
    </linearGradient>
    <linearGradient id="linear-gradient1" x1="197.02" y1="264.76" x2="280.02" y2="28.89" gradientTransform="matrix(1 0 0 -1 0 256)" gradientUnits="userSpaceOnUse">
      <stop offset="0" stop-color="#fff"/>
      <stop offset="1" stop-color="#fff" stop-opacity="0"/>
    </linearGradient>
    <linearGradient id="linear-gradient2" x1="188.59" y1="261.79" x2="271.59" y2="25.92" gradientTransform="matrix(1 0 0 -1 0 256)" gradientUnits="userSpaceOnUse">
      <stop offset="0" stop-color="#fff"/>
      <stop offset="1" stop-color="#fff" stop-opacity="0"/>
    </linearGradient>
    <linearGradient id="linear-gradient3" x1="151.4" y1="248.71" x2="234.41" y2="12.84" gradientTransform="matrix(1 0 0 -1 0 256)" gradientUnits="userSpaceOnUse">
      <stop offset="0" stop-color="#fff"/>
      <stop offset="1" stop-color="#fff" stop-opacity="0"/>
    </linearGradient>
    <linearGradient id="linear-gradient4" x1="379.46" y1="328.96" x2="462.47" y2="93.09" gradientTransform="matrix(1 0 0 -1 0 256)" gradientUnits="userSpaceOnUse">
      <stop offset="0" stop-color="#fff"/>
      <stop offset="1" stop-color="#fff" stop-opacity="0"/>
    </linearGradient>
    <linearGradient id="linear-gradient5" x1="172.27" y1="256.05" x2="255.27" y2="20.18" gradientTransform="matrix(1 0 0 -1 0 256)" gradientUnits="userSpaceOnUse">
      <stop offset="0" stop-color="#fff"/>
      <stop offset="1" stop-color="#fff" stop-opacity="0"/>
    </linearGradient>
    <linearGradient id="linear-gradient6" x1="105.79" y1="232.66" x2="188.79" y2="-3.21" gradientTransform="matrix(1 0 0 -1 0 256)" gradientUnits="userSpaceOnUse">
      <stop offset="0" stop-color="#fff"/>
      <stop offset="1" stop-color="#fff" stop-opacity="0"/>
    </linearGradient>
    <linearGradient id="linear-gradient7" x1="333.85" y1="312.91" x2="416.85" y2="77.04" gradientTransform="matrix(1 0 0 -1 0 256)" gradientUnits="userSpaceOnUse">
      <stop offset="0" stop-color="#fff"/>
      <stop offset="1" stop-color="#fff" stop-opacity="0"/>
    </linearGradient>
    <linearGradient id="linear-gradient8" x1="155.96" y1="250.31" x2="238.96" y2="14.44" gradientTransform="matrix(1 0 0 -1 0 256)" gradientUnits="userSpaceOnUse">
      <stop offset="0" stop-color="#fff"/>
      <stop offset="1" stop-color="#fff" stop-opacity="0"/>
    </linearGradient>
    <linearGradient id="linear-gradient9" x1="60.18" y1="216.61" x2="143.18" y2="-19.26" gradientTransform="matrix(1 0 0 -1 0 256)" gradientUnits="userSpaceOnUse">
      <stop offset="0" stop-color="#fff"/>
      <stop offset="1" stop-color="#fff" stop-opacity="0"/>
    </linearGradient>
    <linearGradient id="linear-gradient10" x1="288.24" y1="296.86" x2="371.24" y2="60.99" gradientTransform="matrix(1 0 0 -1 0 256)" gradientUnits="userSpaceOnUse">
      <stop offset="0" stop-color="#fff"/>
      <stop offset="1" stop-color="#fff" stop-opacity="0"/>
    </linearGradient>
    <linearGradient id="linear-gradient11" x1="14.57" y1="200.55" x2="97.57" y2="-35.31" gradientTransform="matrix(1 0 0 -1 0 256)" gradientUnits="userSpaceOnUse">
      <stop offset="0" stop-color="#fff"/>
      <stop offset="1" stop-color="#fff" stop-opacity="0"/>
    </linearGradient>
    <linearGradient id="linear-gradient12" x1="242.63" y1="280.81" x2="325.63" y2="44.94" gradientTransform="matrix(1 0 0 -1 0 256)" gradientUnits="userSpaceOnUse">
      <stop offset="0" stop-color="#fff"/>
      <stop offset="1" stop-color="#fff" stop-opacity="0"/>
    </linearGradient>
    <style>
      .st13{fill:#fff;fill-opacity:.08}
    </style>
  </defs>
  <path d="M449.49 45.11H0v-.51h449.49v.51Z" style="fill:url(#linear-gradient);fill-opacity:.3;fill-rule:evenodd"/>
  <path d="M244.45 253.53V0h.51v253.53h-.51Z" style="fill:url(#linear-gradient1);fill-opacity:.3;fill-rule:evenodd"/>
  <path d="M449.49 97.22H0v-.51h449.49v.51Z" style="fill:url(#linear-gradient2);fill-opacity:.3;fill-rule:evenodd"/>
  <path d="M193.19 253.53V0h.51v253.53h-.51Z" style="fill-opacity:.3;fill-rule:evenodd;fill:url(#linear-gradient3)"/>
  <path d="M449.49 253.53V0h.51v253.53h-.51Z" style="fill:url(#linear-gradient4);fill-opacity:.3;fill-rule:evenodd"/>
  <path d="M449.49 149.32H0v-.51h449.49v.51Z" style="fill:url(#linear-gradient5);fill-opacity:.3;fill-rule:evenodd"/>
  <path d="M141.93 253.53V0h.51v253.53h-.51Z" style="fill:url(#linear-gradient6);fill-opacity:.3;fill-rule:evenodd"/>
  <path d="M398.23 253.53V0h.51v253.53h-.51Z" style="fill:url(#linear-gradient7);fill-opacity:.3;fill-rule:evenodd"/>
  <path d="M449.49 201.42H0v-.51h449.49v.51Z" style="fill:url(#linear-gradient8);fill-opacity:.3;fill-rule:evenodd"/>
  <path d="M90.67 253.53V0h.51v253.53h-.51Z" style="fill:url(#linear-gradient9);fill-opacity:.3;fill-rule:evenodd"/>
  <path d="M346.97 253.53V0h.51v253.53h-.51Z" style="fill:url(#linear-gradient10);fill-opacity:.3;fill-rule:evenodd"/>
  <path d="M39.41 253.53V0h.51v253.53h-.51Z" style="fill:url(#linear-gradient11);fill-opacity:.3;fill-rule:evenodd"/>
  <path d="M295.71 253.53V0h.51v253.53h-.51Z" style="fill:url(#linear-gradient12);fill-opacity:.3;fill-rule:evenodd"/>
  <path class="st13" d="M91.18 45.11h50.75v51.6H91.18zM142.44 97.22h50.76v51.6h-50.76z"/>
</svg>
