<svg xmlns="http://www.w3.org/2000/svg" viewBox="0 0 32 32" style="enable-background:new 0 0 512 512" xml:space="preserve">
  <path d="m20.293 16.091-5.667 5.667-2.919-2.92a1 1 0 1 0-1.414 1.414l3.626 3.627a.997.997 0 0 0 1.414 0l6.374-6.374a1 1 0 1 0-1.414-1.414z" data-original="#000000"/>
  <path d="M25 3.96h-1.5V3a1 1 0 0 0-2 0v.96h-11V3a1 1 0 0 0-2 0v.96H7c-2.757 0-5 2.243-5 5V25c0 2.757 2.243 5 5 5h18c2.757 0 5-2.243 5-5V8.96c0-2.757-2.243-5-5-5zm-21 5c0-1.654 1.346-3 3-3h1.5v.96a1 1 0 0 0 2 0v-.96h11v.96a1 1 0 0 0 2 0v-.96H25c1.654 0 3 1.346 3 3v1.01H4zM25 28H7c-1.654 0-3-1.346-3-3V11.97h24V25c0 1.654-1.346 3-3 3z" data-original="#000000"/>
</svg>
