<svg viewBox="0 0 991.0926 1024" xmlns="http://www.w3.org/2000/svg"><path d="M765.39 155.743c4.497-2.553 15.088-2.685 19.65-.244 1.932 1.033 27.56 21.14 56.953 44.683 34.206 27.4 54.075 44.408 55.203 47.26 1.324 3.352 1.185 6.112-.56 11.104-1.472 4.216-90.986 120.64-244.807 318.41C450.99 835.177 408.095 889.45 402.073 892.98l-7.27 4.263-7.03-3.432c-7.407-3.615-37.707-32.142-198.237-186.63-99.847-96.088-100.32-96.62-95.03-106.586 2.543-4.793 59.652-65.56 85.14-90.594 18.492-18.164 21.508-19.812 29.003-15.85 1.986 1.048 21.82 19.5 44.08 41.007 79.952 77.247 124.516 118.993 125.703 117.75.664-.695 87.206-112.39 192.316-248.21 105.11-135.822 192.697-247.85 194.64-248.954z"></path></svg>
