<svg viewBox="0 0 1024 1024.4466" xmlns="http://www.w3.org/2000/svg"><path d="M137.19 258.207c5.464-4.2 13.48-4.816 19.46-1.496 2.146 1.19 82.696 77.773 178.998 170.18 96.304 92.407 175.662 168.013 176.356 168.013.692 0 79.618-75.196 175.388-167.102 95.772-91.903 175.934-168.1 178.142-169.325 4.99-2.768 15.846-2.984 20.652-.412 6.108 3.27 68.51 64.524 71.61 70.292 4.03 7.504 3.756 15.026-.782 21.458-2.112 2.994-100.496 97.936-218.632 210.982C533.228 757.113 520.734 769.67 510.144 768.23c-1.238-.17-2.45-.53-3.94-.81-4.786-.897-43.214-36.89-220.586-206.625C167.482 447.75 69.098 352.807 66.986 349.813c-4.538-6.432-4.812-13.948-.782-21.476 2.72-5.08 60.078-61.746 70.986-70.13z"/></svg>