<?xml version="1.0" encoding="UTF-8"?>
<svg id="Layer_1" xmlns="http://www.w3.org/2000/svg" version="1.1" viewBox="0 0 512 512">
  <!-- Generator: Adobe Illustrator 30.2.1, SVG Export Plug-In . SVG Version: 2.1.1 Build 1)  -->
  <defs>
    <style>
      .st0 {
        fill: #343a40;
      }
    </style>
  </defs>
  <g>
    <path class="st0" d="M305.97,230.86c-2.75-3.76-68.3-92.14-152.01-92.14S4.7,227.1,1.95,230.86c-2.61,3.57-2.61,8.41,0,11.98,2.75,3.76,68.3,92.14,152.01,92.14s149.26-88.38,152.01-92.14c2.61-3.57,2.61-8.41,0-11.98h0ZM153.96,314.68c-61.66,0-115.07-58.66-130.88-77.84,15.79-19.19,69.08-77.82,130.88-77.82s115.06,58.65,130.88,77.84c-15.79,19.19-69.08,77.82-130.88,77.82h0Z" data-original="#000000"/>
    <path class="st0" d="M153.96,175.94c-33.58,0-60.91,27.32-60.91,60.91s27.32,60.91,60.91,60.91,60.91-27.32,60.91-60.91-27.32-60.91-60.91-60.91h0ZM153.96,277.46c-22.39,0-40.61-18.22-40.61-40.61s18.22-40.61,40.61-40.61,40.61,18.22,40.61,40.61-18.21,40.61-40.61,40.61h0Z" data-original="#000000"/>
  </g>
  <path class="st0" d="M437.94,81.74H131.75c-32.01,0-58.06,26.04-58.06,58.06v.09c4.23-2.33,8.46-4.48,12.69-6.45,4.81-2.23,9.62-4.22,14.43-5.98,4.91-12.28,16.92-20.97,30.94-20.97h306.19c18.37,0,33.31,14.94,33.31,33.31v187.38c0,18.37-14.94,33.31-33.31,33.31h-24.54v62.41l-89.69-62.41h-191.96c-10.51,0-19.89-4.9-26-12.52-6.46-2.15-12.92-4.71-19.37-7.71-4.09-1.9-8.18-3.98-12.27-6.22,3.41,28.79,27.95,51.19,57.64,51.19h184.19l122.2,85.03v-85.03c31.92-.11,57.85-26.11,57.85-58.06v-187.38c0-32.02-26.05-58.06-58.06-58.06Z"/>
</svg>