<?xml version="1.0" encoding="UTF-8"?>
<svg id="Layer_1" xmlns="http://www.w3.org/2000/svg" version="1.1" viewBox="0 0 512 512">
  <!-- Generator: Adobe Illustrator 30.2.1, SVG Export Plug-In . SVG Version: 2.1.1 Build 1)  -->
  <defs>
    <style>
      .st0 {
        fill: #343a40;
      }
    </style>
  </defs>
  <path class="st0" d="M437.94,81.74H131.75c-32.01,0-58.06,26.04-58.06,58.06v.09c4.23-2.33,8.46-4.48,12.69-6.45,4.81-2.23,9.62-4.22,14.43-5.98,4.91-12.28,16.92-20.97,30.94-20.97h306.19c18.37,0,33.31,14.94,33.31,33.31v187.38c0,18.37-14.94,33.31-33.31,33.31h-24.54v62.41l-89.69-62.41h-191.96c-10.51,0-19.89-4.9-26-12.52-6.46-2.15-12.92-4.71-19.37-7.71-4.09-1.9-8.18-3.98-12.27-6.22,3.41,28.79,27.95,51.19,57.64,51.19h184.19l122.2,85.03v-85.03c31.92-.11,57.85-26.11,57.85-58.06v-187.38c0-32.02-26.05-58.06-58.06-58.06Z"/>
  <path class="st0" d="M151.04,276.09l17.49,17.49c-4.76,1.27-9.74,2.02-14.9,2.02-31.84,0-57.75-25.91-57.75-57.75,0-5.16.75-10.14,2.02-14.9l17.49,17.49c1.3,19.12,16.52,34.35,35.64,35.64ZM.84,242.52c2.08,3.74,52.03,91.57,152.79,91.57,17.64,0,33.62-2.8,48.16-7.26l-15.82-15.82c-10.09,2.35-20.81,3.83-32.34,3.83-76.89,0-121.64-59.61-133.05-76.99,5.97-9.05,21.13-29.57,45.07-47.17l-14.01-14.01C18.82,201.62,2.03,231.04.84,233.17c-1.62,2.91-1.62,6.44,0,9.35ZM40.95,125.17c3.76-3.76,9.85-3.76,13.61,0l31.16,31.16c19.29-8.79,41.86-14.73,67.91-14.73,100.76,0,150.71,87.84,152.79,91.57,1.62,2.91,1.62,6.44,0,9.35-1.36,2.46-23.49,41.16-67.05,67.45l26.94,26.94h0c3.75,3.77,3.75,9.86,0,13.61-1.88,1.88-4.34,2.82-6.8,2.82s-4.93-.94-6.8-2.82L40.95,138.78c-3.76-3.76-3.76-9.85,0-13.61ZM286.68,237.83c-11.41-17.37-56.16-76.99-133.05-76.99-19.85,0-37.54,4.04-53.11,10.27l19.7,19.7c9.44-6.73,20.96-10.73,33.41-10.73,31.84,0,57.75,25.91,57.75,57.75,0,12.45-4,23.97-10.73,33.41l24.37,24.37c33.6-19.03,54.42-46.81,61.66-57.79ZM192.13,237.85c0-21.23-17.27-38.5-38.5-38.5-7.12,0-13.71,2.07-19.43,5.45l52.48,52.48c3.38-5.72,5.45-12.32,5.45-19.43Z" data-original="#000000"/>
</svg>