<?xml version="1.0" encoding="UTF-8"?>
<svg id="Layer_1" xmlns="http://www.w3.org/2000/svg" version="1.1" viewBox="0 0 512 512">
  <!-- Generator: Adobe Illustrator 30.2.1, SVG Export Plug-In . SVG Version: 2.1.1 Build 1)  -->
  <defs>
    <style>
      .st0 {
        fill: #343a40;
      }
    </style>
  </defs>
  <path class="st0" d="M430.01,55.2H81.99c-36.39,0-65.99,29.6-65.99,65.99v212.98c0,36.31,29.47,65.86,65.76,65.99v96.65l138.89-96.65h209.36c36.39,0,65.99-29.6,65.99-65.99V121.19c0-36.39-29.6-65.99-65.99-65.99h0ZM467.87,334.17c0,20.88-16.99,37.87-37.87,37.87h-218.18l-101.94,70.94v-70.94h-27.89c-20.88,0-37.87-16.99-37.87-37.87V121.19c0-20.88,16.99-37.87,37.87-37.87h348.02c20.88,0,37.87,16.98,37.87,37.87v212.98Z" data-original="#000000"/>
  <path class="st0" d="M144.47,154.57h223.06v28.12h-223.06v-28.12ZM144.47,214.57h223.06v28.12h-223.06v-28.12ZM144.47,274.57h223.06v28.12h-223.06v-28.12Z" data-original="#000000"/>
</svg>