<svg xmlns="http://www.w3.org/2000/svg" version="1.1" xmlns:xlink="http://www.w3.org/1999/xlink" width="512" height="512" x="0" y="0" viewBox="0 0 32 32" style="enable-background:new 0 0 512 512" xml:space="preserve" class=""><g><path d="M17.628 27.312c-.876.191-1.76.288-2.628.288-1.753 0-3.649-2.692-4.532-6.949h6.892a.9.9 0 0 0 0-1.8h-7.189a26.63 26.63 0 0 1 0-6.701h9.657c.133 1.051.212 2.168.212 3.351 0 .303-.009.605-.018.908l-.002.086c-.015.496.378.868.875.883.479 0 .912-.42.927-.916.009-.32.019-.641.019-.961 0-1.161-.074-2.279-.2-3.351h4.977c.308 1.065.482 2.187.482 3.351 0 .45-.021.852-.064 1.227a.9.9 0 0 0 1.789.207A12.8 12.8 0 0 0 28.9 15.5c0-7.664-6.236-13.9-13.9-13.9-7.665 0-13.9 6.236-13.9 13.9S7.335 29.4 15 29.4c.998 0 2.011-.111 3.013-.331a.9.9 0 1 0-.385-1.757zM8.36 18.85H3.382c-.308-1.066-.482-2.187-.482-3.35s.174-2.285.482-3.351H8.36a28.66 28.66 0 0 0-.2 3.351c0 1.161.074 2.278.2 3.35zm2.108-8.501C11.351 6.092 13.247 3.4 15 3.4s3.649 2.692 4.532 6.948h-9.064zm15.464 0h-4.566c-.491-2.568-1.339-4.741-2.431-6.279a12.143 12.143 0 0 1 6.997 6.279zM11.066 4.07c-1.092 1.538-1.94 3.711-2.431 6.279H4.068a12.145 12.145 0 0 1 6.998-6.279zM4.067 20.65h4.568c.491 2.568 1.339 4.742 2.431 6.28a12.142 12.142 0 0 1-6.999-6.28z" fill="#343a40" opacity="1" data-original="#000000" class=""></path><path d="m30.637 28.863-2.276-2.276c.609-.866.946-1.89.946-2.971a5.15 5.15 0 0 0-1.521-3.669c-.98-.981-2.283-1.521-3.67-1.521s-2.689.54-3.669 1.521c-.981.98-1.521 2.283-1.521 3.67s.54 2.689 1.521 3.669a5.152 5.152 0 0 0 3.67 1.521 5.141 5.141 0 0 0 2.971-.946l2.276 2.276a.899.899 0 1 0 1.273-1.274zm-8.918-2.85c-.64-.64-.992-1.491-.992-2.396s.353-1.757.993-2.397 1.491-.992 2.396-.992 1.757.353 2.397.993.992 1.491.992 2.396-.353 1.757-.992 2.396l-.001.001c-1.279 1.279-3.512 1.28-4.793-.001z" fill="#343a40" opacity="1" data-original="#000000" class=""></path></g></svg>
