<svg xmlns="http://www.w3.org/2000/svg" style="enable-background:new 0 0 512 512" xml:space="preserve" viewBox="0 0 512 512">
  <path d="M437.02 74.98C388.668 26.629 324.38 0 256.001 0S123.333 26.629 74.982 74.98 0 187.62 0 256.001 26.63 388.668 74.981 437.02C123.332 485.371 187.621 512 256 512s132.667-26.629 181.019-74.98C485.372 388.668 512 324.381 512 256s-26.628-132.667-74.98-181.02zm-21.177 21.179c13.67 13.669 25.362 28.787 34.957 44.999h-99.512c-4.388-22.123-10.069-42.641-16.95-60.876-6.404-16.969-13.704-31.421-21.707-43.207 38.71 9.942 74.21 30.081 103.212 59.084zM331.998 256c0 29.053-1.967 57.247-5.725 83.511H185.729c-3.759-26.265-5.724-54.459-5.724-83.511 0-29.562 2.035-58.238 5.924-84.894h140.145c3.888 26.657 5.924 55.332 5.924 84.894zM256.001 29.949c17.111 0 35.921 22.77 50.316 60.908 5.719 15.152 10.549 32.069 14.425 50.3H191.259c3.875-18.231 8.705-35.148 14.425-50.3 14.395-38.138 33.205-60.908 50.317-60.908zM96.159 96.158c29.002-29.003 64.502-49.142 103.213-59.084-8.003 11.786-15.303 26.239-21.707 43.207-6.882 18.235-12.564 38.753-16.951 60.876H61.201c9.596-16.211 21.288-31.33 34.958-44.999zM29.95 256.001c0-29.576 5.655-58.281 16.43-84.894h109.321c-3.709 26.892-5.647 55.521-5.647 84.894 0 28.868 1.869 57.023 5.454 83.511H45.827c-10.413-26.224-15.877-54.447-15.877-83.511zm66.209 159.84c-14.057-14.056-26.02-29.646-35.764-46.381h100.046c4.424 22.651 10.198 43.644 17.223 62.258 6.405 16.969 13.704 31.421 21.707 43.207-38.71-9.942-74.21-30.081-103.212-59.084zm159.842 66.21c-17.112 0-35.921-22.77-50.316-60.908-5.863-15.533-10.788-32.925-14.711-51.683h130.054c-3.923 18.757-8.848 36.149-14.711 51.683-14.395 38.139-33.205 60.908-50.316 60.908zm159.842-66.209c-29.003 29.003-64.502 49.142-103.213 59.084 8.003-11.786 15.303-26.239 21.707-43.207 7.025-18.615 12.799-39.607 17.223-62.258h100.047c-9.745 16.735-21.708 32.324-35.764 46.381zm-59.351-76.331c3.586-26.488 5.455-54.644 5.455-83.511-.001-29.372-1.939-58.003-5.647-84.894h109.322c10.775 26.613 16.43 55.318 16.43 84.894 0 29.066-5.464 57.287-15.877 83.511H356.492z" data-original="#000000"/>
</svg>
