<svg viewBox="0 0 991.0926 1024" xmlns="http://www.w3.org/2000/svg"><path d="M465.813 91.837c15.17-1.336 70.85.598 90.025 3.128 61.49 8.112 119.654 29.005 170.137 61.11 50.625 32.2 106.91 88.884 140.252 141.253 11.9 18.69 31.335 59.48 38.945 81.73 29.657 86.715 31.916 182.99 6.372 271.643-31.407 109.007-116.11 209.323-221.908 262.818-60.054 30.366-121.713 44.503-194.09 44.503-72.376 0-134.035-14.136-194.09-44.502-41.604-21.037-76.435-46.43-111.313-81.15C127.27 769.78 87.735 698.39 71.15 617.5c-13.278-64.778-11.79-140.575 3.987-202.813 9.727-38.372 30.13-86.51 49.74-117.357 26.098-41.05 74.238-93.318 111.334-120.88 70.24-52.188 135.8-76.348 229.603-84.61zm46.2 180.766c-35.354-3.723-68.58-.186-94.672 10.075-4.682 1.843-14.567 7.373-21.964 12.29-35.77 23.777-51.63 57.08-56 117.574l-1.104 15.28h47.253c36.7 0 47.252-.462 47.253-2.065 0-1.136.777-10.24 1.723-20.236 2.673-28.202 11.734-43.734 31.048-53.22 8.43-4.14 11.055-4.59 26.694-4.577 15.192.013 18.482.545 26.506 4.297 31.756 14.843 45.282 52.932 29.83 84-10.05 20.206-17.28 27.778-39.816 41.702-18.405 11.37-42.813 32.476-50.916 44.03-14.607 20.82-21.355 41.67-22.91 70.79-.74 13.776-.454 19.183 1.104 21.06 1.78 2.145 8.324 2.527 43.19 2.527 30.325 0 41.065.54 45.126-4.405 2.62-3.19 2.46-8.668 2.99-18.055 1.72-30.44 10.686-45.257 38.148-63.033 20.157-13.047 40.956-30.383 56.767-47.313 23.298-24.946 32.645-54.498 28.826-91.136-3.47-33.283-12.625-53.223-34.075-74.212-26.545-25.977-60.612-40.7-104.996-45.373zM500.387 669.96c-15.69-7.126-34.652-6.865-49.45.684-17.035 8.692-27.223 23.314-29.95 42.99-3.715 26.805 7.224 48.43 29.96 59.232 8.087 3.84 11.085 4.315 27.256 4.315 21.638 0 29.516-2.833 41.144-14.797 11.125-11.446 14.652-22.378 13.88-43.014-.543-14.517-1.207-17.595-5.473-25.38-5.652-10.314-14.746-18.3-27.367-24.03z" fill="#343a40" /></svg>
