<svg xmlns="http://www.w3.org/2000/svg" viewBox="0 0 48 48" style="enable-background:new 0 0 512 512" xml:space="preserve">
  <path d="M38.633 6.117V4.051h2.455c.14 0 .253-.113.253-.253V.253A.253.253 0 0 0 41.088 0H6.912a.253.253 0 0 0-.253.253v3.545c0 .14.113.253.253.253h2.455v2.066c0 6.78 3.221 12.958 8.224 15.808.342.445 1.148 1.619 1.034 2.7-.052.49-.297.912-.749 1.29-5.173 2.773-8.509 9.027-8.509 15.968v2.066H6.912a.252.252 0 0 0-.253.252v3.546c0 .14.113.253.253.253h34.176c.14 0 .253-.113.253-.253v-3.546a.252.252 0 0 0-.253-.252h-2.455v-2.066c0-6.939-3.336-13.194-8.51-15.969-.451-.378-.696-.8-.748-1.289-.113-1.077.693-2.255 1.036-2.701 5.002-2.849 8.222-9.025 8.222-15.807zm-11.268 18.72c.112 1.065.641 1.979 1.57 2.717.049.038.102.073.156.102 4.568 2.404 7.52 7.988 7.52 14.228v1.309H11.389v-1.309c0-6.239 2.951-11.823 7.519-14.227a.883.883 0 0 0 .155-.102c.931-.736 1.46-1.651 1.572-2.718.203-1.931-1.051-3.68-1.6-4.342a.997.997 0 0 0-.292-.242c-4.469-2.452-7.354-8-7.354-14.136V4.809h25.223v1.309c0 6.137-2.886 11.685-7.353 14.135a1.063 1.063 0 0 0-.292.241c-.55.665-1.805 2.417-1.602 4.343z" fill="#343a40" />
  <path d="M31.878 12.402a.255.255 0 0 0-.046-.27.25.25 0 0 0-.265-.068l-12.534 4.07c-.085.026-.149.097-.169.184s.008.179.073.239a8.411 8.411 0 0 0 1.738 1.294l.739.407.512.617c.848 1.022 1.464 2.101 1.833 3.203a.253.253 0 0 0 .48 0c.369-1.103.986-2.182 1.837-3.207l.511-.615.738-.405c1.853-1.016 3.512-3.002 4.553-5.449zm-5.021 17.501-.344-.272c-1.081-.854-1.847-1.879-2.277-3.044-.072-.197-.4-.197-.473 0-.43 1.163-1.196 2.188-2.279 3.046l-.304.247-.396.208c-3.012 1.586-5.284 5.486-5.788 9.938a.254.254 0 0 0 .251.281h17.507a.252.252 0 0 0 .251-.281c-.505-4.455-2.778-8.355-5.789-9.939z" fill="#343a40" />
</svg>
