<svg xmlns="http://www.w3.org/2000/svg" version="1.1" xmlns:xlink="http://www.w3.org/1999/xlink" width="512" height="512" x="0" y="0" viewBox="0 0 32 32" style="enable-background:new 0 0 512 512" xml:space="preserve" class=""><g><path d="M22.399 17.04a1.899 1.899 0 0 0-3.139 0l-1.76 2.581-3.261-4.773a1.898 1.898 0 0 0-3.137.001l-5.626 8.237a1.892 1.892 0 0 0-.11 1.959c.33.624.974 1.013 1.68 1.013h17.913a1.897 1.897 0 0 0 1.901-1.902c0-.375-.111-.748-.332-1.07zm2.646 7.164c-.028.053-.071.053-.089.053H7.044c-.018 0-.06 0-.088-.053a.103.103 0 0 1-.013-.049c0-.027.013-.045.019-.055l5.626-8.236.165-.001 4.004 5.861a.897.897 0 0 0 1.486 0l2.504-3.669h.166l4.126 6.046c.011.015.035.049.006.103zM21.311 12.818c2.101 0 3.811-1.71 3.811-3.811s-1.709-3.811-3.811-3.811-3.81 1.71-3.81 3.811 1.709 3.811 3.81 3.811zm0-5.82c1.109 0 2.011.901 2.011 2.01s-.902 2.01-2.011 2.01c-1.108 0-2.01-.901-2.01-2.01s.902-2.01 2.01-2.01z" fill="#343a40" opacity="1" data-original="#000000" class=""></path><path d="M26 1.1H6A4.905 4.905 0 0 0 1.1 6v20c0 2.702 2.198 4.9 4.9 4.9h20c2.702 0 4.9-2.198 4.9-4.9V6c0-2.702-2.198-4.9-4.9-4.9zM29.1 26c0 1.709-1.391 3.1-3.1 3.1H6A3.104 3.104 0 0 1 2.9 26V6c0-1.709 1.391-3.1 3.1-3.1h20c1.709 0 3.1 1.391 3.1 3.1z" fill="#343a40" opacity="1" data-original="#000000" class=""></path></g></svg>
