<?xml version="1.0" encoding="UTF-8"?>
<svg xmlns="http://www.w3.org/2000/svg" xmlns:xlink="http://www.w3.org/1999/xlink" version="1.1" viewBox="0 0 512 512">
  <!-- Generator: Adobe Illustrator 30.1.0, SVG Export Plug-In . SVG Version: 2.1.1 Build 136)  -->
  <defs>
    <style>
      .st0, .st1 {
        mix-blend-mode: overlay;
        opacity: .5;
      }

      .st0, .st2 {
        fill: url(#radial-gradient5);
      }

      .st1, .st3 {
        fill: url(#radial-gradient2);
      }

      .st4 {
        fill: url(#radial-gradient);
      }

      .st5 {
        isolation: isolate;
      }

      .st6 {
        fill: #28468f;
      }

      .st2, .st3 {
        mix-blend-mode: hard-light;
      }

      .st7 {
        fill: #fff;
      }

      .st8 {
        fill: url(#radial-gradient1);
      }

      .st9 {
        fill: url(#radial-gradient3);
      }

      .st10 {
        fill: url(#radial-gradient4);
      }
    </style>
    <radialGradient id="radial-gradient" cx="176.61" cy="205.02" fx="176.61" fy="205.02" r="157.94" gradientUnits="userSpaceOnUse">
      <stop offset="0" stop-color="#308ad9"/>
      <stop offset="1" stop-color="#26a8ff"/>
    </radialGradient>
    <radialGradient id="radial-gradient1" cx="176.61" cy="205.02" fx="176.61" fy="205.02" r="157.94" gradientUnits="userSpaceOnUse">
      <stop offset="0" stop-color="#26a8ff"/>
      <stop offset="1" stop-color="#308ad9"/>
    </radialGradient>
    <radialGradient id="radial-gradient2" cx="103.17" cy="261.51" fx="103.17" fy="261.51" r="83.44" gradientTransform="translate(-252.97 310.37) rotate(-81.13) scale(1 1.32)" gradientUnits="userSpaceOnUse">
      <stop offset="0" stop-color="#308ad9"/>
      <stop offset=".55" stop-color="#2f8bda"/>
      <stop offset=".74" stop-color="#2d90e1"/>
      <stop offset=".88" stop-color="#2a9aed"/>
      <stop offset="1" stop-color="#26a7fe"/>
      <stop offset="1" stop-color="#26a8ff"/>
    </radialGradient>
    <radialGradient id="radial-gradient3" cx="501.91" cy="202.64" fx="501.91" fy="202.64" r="260.74" xlink:href="#radial-gradient1"/>
    <radialGradient id="radial-gradient4" cx="249.79" cy="269.49" fx="249.79" fy="269.49" r="124.55" xlink:href="#radial-gradient"/>
    <radialGradient id="radial-gradient5" cx="327.41" cy="379.56" fx="327.41" fy="379.56" r="81.91" gradientUnits="userSpaceOnUse">
      <stop offset="0" stop-color="#308ad9"/>
      <stop offset=".39" stop-color="#2f8cdb"/>
      <stop offset=".66" stop-color="#2c93e4"/>
      <stop offset=".88" stop-color="#289ff3"/>
      <stop offset="1" stop-color="#26a8ff"/>
    </radialGradient>
  </defs>
  <g class="st5">
    <g id="Layer_1">
      <g>
        <path class="st4" d="M229.22,319.38c7.22-9.79,14.1-19.83,21.39-29.58,24.52-32.83,50.51-64.81,84.12-84.13,9.1-38.34,1.82-72.54-16.38-106.12-16.79-30.98-37.48-58.82-62.8-84.62-10.55,25.57-26.54,46.22-43.93,67.07-32.09,39.77-47.72,72.48-33.56,125.62-27.1-14.74-55.71-21.04-86.16-21.35-27.54-.28-54.12,2.64-80.45,11.97,24.72,24.74,37.24,50.21,52.4,80.4,15.73,29.13,34.93,59.83,68.61,70.5-17.23,25.22-23.09,54.52-19.5,83.47,5.28-4.13,10.53-8.31,15.74-12.53,37.44-30.32,71.84-61.77,100.53-100.69Z"/>
        <path class="st8" d="M318.35,99.54c-16.75-30.91-37.38-58.69-62.63-84.45,5.44,40.12,11.41,80.12,12.82,120.64,1.94,55.68-3.61,113.08-29.66,163.23-13.03,25.09-30.63,47.35-50.39,67.71-1.39,1.43-2.81,2.84-4.22,4.25,16.1-15.94,31.19-32.88,44.95-51.55,7.22-9.79,14.1-19.83,21.39-29.58,24.52-32.83,50.51-64.81,84.12-84.13,9.1-38.34,1.82-72.54-16.38-106.12Z"/>
        <path class="st3" d="M11.44,198.23c26.33-9.34,52.91-12.25,80.45-11.97,5.41.05,10.82.3,16.22.76,13.81,1.18,27.51,3.81,40.71,8.05,12,3.85,24.06,8.79,34.18,16.44,1.13.86,2.24,1.75,3.31,2.67,19.19,16.52,30.97,41,31.12,66.39.01,1.94-.04,3.89-.15,5.83-.02.35-.04.69-.07,1.04-.02.23-.16.76-.07.97,0,0-43.54-101.48-205.7-90.17Z"/>
        <path class="st9" d="M493.59,197.27c-6.37-1.85-12.81-3.32-19.32-4.62s-13.24-2.44-19.9-3.36-13.36-1.62-20.07-2.09c-4.93-.35-9.87-.57-14.81-.65-24.18-.47-48.45,2.25-70.78,11.97-4.8,2.09-9.47,4.46-13.97,7.14-33.61,19.32-59.6,51.3-84.12,84.13-7.28,9.75-14.17,19.79-21.39,29.58-28.68,38.91-63.09,70.37-100.53,100.69-5.21,4.22-10.46,8.4-15.74,12.53,44.93-3.19,87.33-22.32,124.85-46.07,3.05,5.24,3.37,10.17,3.98,15.41,3.28,27.87-.74,55.27-7.08,82.39-1.6,6.84,6.99,12.11,11.69,12.63,6.6.74,13.16-1.83,15.57-8.73,5.44-35.15,3.19-65.31-.06-101.62,35.96,43.91,87.76,53.71,140.99,41.46,1.25-28.32-8.61-61.3-32.03-80.57,30.26-5.89,50.71-25.6,67.97-51.12,22.2-33.62,35.02-64.45,61.31-97.61-.22.28-3.53-.61-6.57-1.5Z"/>
        <path class="st10" d="M399.61,233.11c32.48-13.36,66.26-25.04,100.38-34.29-.75.04-3.67-.76-6.4-1.55-6.37-1.85-12.81-3.32-19.32-4.62-6.6-1.31-13.24-2.44-19.9-3.36-6.67-.92-13.36-1.62-20.07-2.09-4.93-.35-9.87-.57-14.81-.65-24.18-.47-48.45,2.25-70.78,11.97-4.8,2.09-9.47,4.46-13.97,7.14-33.61,19.32-59.6,51.3-84.12,84.13-7.28,9.75-14.17,19.79-21.39,29.58-17.48,23.71-37.09,44.64-58.2,64.24,26.73-23.91,53.11-48.23,82-69.56,44.93-33.18,95-59.73,146.59-80.95Z"/>
        <path class="st2" d="M402.9,428.07c1.25-28.32-8.61-61.3-32.03-80.57,0,0-42.96-35.96-114.81-12.39,3.31-1.09,9.58.27,13.2.49,4.94.31,9.87.75,14.77,1.39,9.9,1.28,19.75,3.29,29.22,6.5,16.75,5.66,29.72,16.28,42.31,28.34,17.74,16.98,32.99,36.38,47.34,56.25Z"/>
        <path class="st1" d="M11.44,198.23c26.33-9.34,52.91-12.25,80.45-11.97,5.41.05,10.82.3,16.22.76,13.81,1.18,27.51,3.81,40.71,8.05,12,3.85,24.06,8.79,34.18,16.44,1.13.86,2.24,1.75,3.31,2.67,19.19,16.52,30.97,41,31.12,66.39.01,1.94-.04,3.89-.15,5.83-.02.35-.04.69-.07,1.04-.02.23-.16.76-.07.97,0,0-43.54-101.48-205.7-90.17Z"/>
        <path class="st0" d="M402.9,428.07c1.25-28.32-8.61-61.3-32.03-80.57,0,0-42.96-35.96-114.81-12.39,3.31-1.09,9.58.27,13.2.49,4.94.31,9.87.75,14.77,1.39,9.9,1.28,19.75,3.29,29.22,6.5,16.75,5.66,29.72,16.28,42.31,28.34,17.74,16.98,32.99,36.38,47.34,56.25Z"/>
        <path class="st1" d="M11.44,198.23c26.33-9.34,52.91-12.25,80.45-11.97,5.41.05,10.82.3,16.22.76,13.81,1.18,27.51,3.81,40.71,8.05,12,3.85,24.06,8.79,34.18,16.44,1.13.86,2.24,1.75,3.31,2.67,19.19,16.52,30.97,41,31.12,66.39.01,1.94-.04,3.89-.15,5.83-.02.35-.04.69-.07,1.04-.02.23-.16.76-.07.97,0,0-43.54-101.48-205.7-90.17Z"/>
        <path class="st0" d="M402.9,428.07c1.25-28.32-8.61-61.3-32.03-80.57,0,0-42.96-35.96-114.81-12.39,3.31-1.09,9.58.27,13.2.49,4.94.31,9.87.75,14.77,1.39,9.9,1.28,19.75,3.29,29.22,6.5,16.75,5.66,29.72,16.28,42.31,28.34,17.74,16.98,32.99,36.38,47.34,56.25Z"/>
        <path class="st6" d="M113.33,432.62c2.58-2.02,5.16-4.05,7.72-6.1-2.57,2.04-5.14,4.08-7.72,6.1Z"/>
        <path class="st6" d="M252.23,288.02c-.5.67-1,1.33-1.5,2,.5-.67,1-1.33,1.5-2h0Z"/>
        <path class="st6" d="M252.23,288.02c-.5.67-1,1.33-1.5,2-7.28,9.75-14.17,19.79-21.39,29.58-28.68,38.91-63.09,70.37-100.53,100.69-2.58,2.09-5.17,4.17-7.77,6.24-2.57,2.04-5.14,4.08-7.72,6.1-.03.02-.05.04-.08.06.03.04.06.07.09.11,7.45-.54,14.83-1.52,22.12-2.89,10.35-8.78,20.58-17.67,30.57-26.94,35.2-32.49,68.07-69.94,86.2-114.95Z"/>
        <path class="st6" d="M256.09,15.12c.02.17.04.33.06.5.01.01.02.02.03.03-.03-.18-.06-.36-.09-.53Z"/>
        <path class="st6" d="M121.06,426.52c2.6-2.07,5.19-4.15,7.77-6.24,37.44-30.32,71.84-61.77,100.53-100.69,7.22-9.79,14.1-19.83,21.39-29.58.5-.67,1-1.33,1.5-2,.43-1.07.87-2.15,1.28-3.23,11.47-29.31,17.08-60.87,18.81-92.2,3.51-59.42-6.56-118.66-16.15-176.94-.01-.01-.02-.02-.03-.03,5.43,48.92,11.42,97.81,9.32,146.94-1.4,36.35-6.97,73.03-20.36,106.98-24.77,63.99-79.54,108.82-133.01,149.2.08,4.56.39,9.12.94,13.68.07.09.14.18.21.27.03-.02.05-.04.08-.06,2.58-2.02,5.16-4.05,7.72-6.1Z"/>
        <path class="st6" d="M128.82,420.29c-2.58,2.09-5.17,4.17-7.77,6.24,2.6-2.07,5.19-4.15,7.77-6.24Z"/>
        <path class="st6" d="M113.33,432.62s-.05.04-.08.06h0s.05-.04.08-.06Z"/>
        <path class="st6" d="M142.15,409.32c1.03-.86,2.05-1.73,3.08-2.59-1.02.86-2.05,1.73-3.08,2.59Z"/>
        <path class="st6" d="M191.19,364.3c1.58-1.62,3.15-3.25,4.71-4.9-1.56,1.65-3.13,3.28-4.71,4.9Z"/>
        <path class="st6" d="M135.54,414.81c.82-.67,1.63-1.35,2.45-2.03-.82.68-1.63,1.35-2.45,2.03Z"/>
        <path class="st6" d="M173.77,381.39c1.35-1.27,2.7-2.55,4.04-3.83-1.34,1.28-2.69,2.56-4.04,3.83Z"/>
        <path class="st6" d="M167.66,387.06c1.31-1.2,2.61-2.4,3.91-3.6-1.3,1.21-2.6,2.41-3.91,3.6Z"/>
        <path class="st6" d="M161.43,392.69c1.26-1.13,2.52-2.26,3.77-3.39-1.25,1.13-2.51,2.26-3.77,3.39Z"/>
        <path class="st6" d="M155.1,398.27c1.21-1.05,2.41-2.11,3.61-3.17-1.2,1.06-2.4,2.12-3.61,3.17Z"/>
        <path class="st6" d="M148.67,403.81c1.14-.97,2.26-1.95,3.39-2.92-1.13.97-2.26,1.95-3.39,2.92Z"/>
        <path class="st6" d="M179.76,375.69c1.41-1.36,2.81-2.72,4.2-4.09-1.39,1.37-2.79,2.74-4.2,4.09Z"/>
        <path class="st6" d="M189.98,365.54c-1.46,1.49-2.92,2.96-4.4,4.43,1.47-1.47,2.94-2.94,4.4-4.43Z"/>
        <path class="st6" d="M500.56,198.99c-.11.03-.22.06-.33.08,0,0-.01.02-.02.03.12-.04.23-.07.35-.11Z"/>
        <path class="st6" d="M113.25,432.69h0c2.61-2.04,5.22-4.1,7.81-6.17-2.59,2.07-5.2,4.12-7.81,6.17Z"/>
        <path class="st6" d="M222.96,328.01c-8.42,10.8-17.29,21.04-26.55,30.85,9.26-9.81,18.13-20.04,26.55-30.85h0Z"/>
        <path class="st6" d="M248.53,327.4c73.7-59.66,161.27-100.5,251.68-128.3,0,0,.01-.02.02-.03-36.96,9.03-73.34,20.7-108.87,34.63-53.49,21-105.45,47.73-152,81.83-5.53,4.08-10.99,8.25-16.39,12.48-8.42,10.8-17.29,21.04-26.55,30.85-.17.18-.33.36-.5.54-1.56,1.65-3.13,3.28-4.71,4.9-.4.42-.8.83-1.21,1.25-1.46,1.49-2.92,2.96-4.4,4.43-.54.54-1.09,1.09-1.63,1.62-1.39,1.37-2.79,2.74-4.2,4.09-.65.63-1.29,1.25-1.94,1.87-1.34,1.28-2.69,2.56-4.04,3.83-.73.69-1.47,1.38-2.21,2.06-1.3,1.21-2.6,2.41-3.91,3.6-.82.75-1.64,1.49-2.46,2.24-1.25,1.13-2.51,2.27-3.77,3.39-.9.81-1.81,1.61-2.72,2.41-1.2,1.06-2.4,2.12-3.61,3.17-1.01.88-2.02,1.75-3.03,2.62-1.13.97-2.26,1.95-3.39,2.92-1.14.98-2.3,1.95-3.45,2.92-1.02.86-2.05,1.73-3.08,2.59-1.38,1.16-2.77,2.31-4.16,3.46-.82.68-1.63,1.35-2.45,2.03-2.23,1.83-4.46,3.66-6.71,5.48-2.58,2.09-5.17,4.17-7.76,6.23-2.59,2.07-5.2,4.12-7.81,6.17.03.04.06.07.09.11,7.44-.54,14.81-1.52,22.1-2.88,2.47-2.1,4.94-4.21,7.39-6.36,35.96-31.42,68.79-65.98,105.69-96.16Z"/>
        <path class="st6" d="M121.06,426.52c2.6-2.07,5.18-4.14,7.76-6.23-2.58,2.09-5.17,4.17-7.76,6.23Z"/>
        <path class="st6" d="M196.41,358.86c-.17.18-.33.36-.5.54.17-.18.33-.36.5-.54Z"/>
        <path class="st6" d="M185.58,369.97c-.54.54-1.09,1.09-1.63,1.62.55-.54,1.09-1.08,1.63-1.62Z"/>
        <path class="st6" d="M148.67,403.81c-1.14.98-2.3,1.95-3.45,2.92,1.15-.97,2.3-1.94,3.45-2.92Z"/>
        <path class="st6" d="M179.76,375.69c-.65.63-1.29,1.25-1.94,1.87.65-.62,1.3-1.25,1.94-1.87Z"/>
        <path class="st6" d="M191.19,364.3c-.4.42-.8.83-1.21,1.25.41-.41.81-.83,1.21-1.25Z"/>
        <path class="st6" d="M142.15,409.32c-1.38,1.16-2.77,2.31-4.16,3.46,1.39-1.15,2.78-2.3,4.16-3.46Z"/>
        <path class="st6" d="M161.43,392.69c-.9.81-1.81,1.61-2.72,2.41.91-.8,1.82-1.6,2.72-2.41Z"/>
        <path class="st6" d="M155.1,398.27c-1.01.88-2.02,1.75-3.03,2.62,1.01-.87,2.02-1.74,3.03-2.62Z"/>
        <path class="st6" d="M173.77,381.39c-.73.69-1.47,1.38-2.21,2.06.74-.69,1.47-1.37,2.21-2.06Z"/>
        <path class="st6" d="M135.54,414.81c-2.23,1.83-4.46,3.66-6.71,5.48,2.25-1.82,4.49-3.65,6.71-5.48Z"/>
        <path class="st6" d="M167.66,387.06c-.82.75-1.64,1.49-2.46,2.24.82-.74,1.64-1.49,2.46-2.24Z"/>
        <path class="st6" d="M155.48,398.01c5.56-4.85,11.03-9.77,16.41-14.78-5.37,5-10.85,9.92-16.41,14.78Z"/>
        <path class="st6" d="M147.56,404.81c2.45-2.08,4.89-4.18,7.31-6.28-2.42,2.11-4.86,4.2-7.31,6.28Z"/>
        <path class="st6" d="M196.4,358.95c-5.15,5.46-10.43,10.78-15.81,16,5.38-5.22,10.65-10.55,15.81-16Z"/>
        <path class="st6" d="M172.7,382.47c2.53-2.36,5.04-4.75,7.52-7.15-2.48,2.41-4.99,4.79-7.52,7.15Z"/>
        <path class="st6" d="M139.29,411.76c2.07-1.72,4.12-3.44,6.17-5.17.7-.59,1.41-1.19,2.1-1.78,2.45-2.08,4.89-4.17,7.31-6.28.2-.18.41-.35.61-.53,5.56-4.85,11.03-9.77,16.41-14.78.27-.25.54-.51.82-.76,2.53-2.36,5.04-4.75,7.52-7.15.12-.12.25-.24.37-.36,5.38-5.22,10.65-10.55,15.81-16,0,0,0,0,0,0-24.24,22.24-48,45.01-73.33,66.01,1.96-1.57,3.93-3.14,5.88-4.72,2.73-2.21,5.44-4.43,8.13-6.65.74-.61,1.46-1.22,2.2-1.82Z"/>
        <path class="st6" d="M180.6,374.95c-.12.12-.25.24-.37.36.12-.12.25-.24.37-.36Z"/>
        <polygon class="st6" points="196.4 358.95 196.4 358.95 196.4 358.95 196.4 358.95"/>
        <path class="st6" d="M147.56,404.81c-.7.59-1.4,1.19-2.1,1.78.7-.59,1.41-1.19,2.1-1.78Z"/>
        <path class="st6" d="M172.7,382.47c-.27.25-.54.51-.82.76.27-.25.54-.51.82-.76Z"/>
        <path class="st6" d="M155.48,398.01c-.2.18-.41.35-.61.53.2-.18.41-.35.61-.53Z"/>
        <path class="st6" d="M238.08,307.64c-1.23,1.73-2.47,3.45-3.7,5.17,1.24-1.72,2.47-3.44,3.7-5.17,0,0,0,0,0,0Z"/>
        <path class="st6" d="M234.38,312.81c-1.62,2.25-3.25,4.51-4.9,6.74,1.65-2.24,3.28-4.49,4.9-6.74Z"/>
        <path class="st7" d="M499.98,198.82c-43.99-8.71-98.9-13.9-141.41,1.78-11,3.99-21.16,9.98-30.91,16.35-30.03,19.51-56.37,44.04-76.57,73.87,7.56-23.53,22.74-44.3,40.67-61.18,11.33-10.61,23.96-19.83,37.42-27.53,8.12-4.79,16.72-8.97,25.66-11.96,45.39-15.17,100.95-6.93,145.14,8.67h0Z"/>
      </g>
    </g>
  </g>
</svg>
