<?xml version="1.0" encoding="UTF-8"?>
<svg xmlns="http://www.w3.org/2000/svg" xmlns:xlink="http://www.w3.org/1999/xlink" version="1.1" viewBox="0 0 684.84 356.04">
  <!-- Generator: Adobe Illustrator 29.8.4, SVG Export Plug-In . SVG Version: 2.1.1 Build 6)  -->
  <defs>
    <style>
      .st0 {
        fill: url(#radial-gradient);
      }

      .st1 {
        fill: url(#radial-gradient5);
      }

      .st1, .st2 {
        mix-blend-mode: hard-light;
      }

      .st1, .st2, .st3, .st4, .st5, .st6, .st7, .st8 {
        isolation: isolate;
      }

      .st2 {
        fill: url(#radial-gradient2);
      }

      .st9, .st4 {
        fill: #28468f;
      }

      .st10 {
        fill: #041e42;
      }

      .st11 {
        fill: #fff;
      }

      .st4 {
        font-family: Lato-Bold, Lato;
        font-size: 50.06px;
        font-weight: 700;
      }

      .st5 {
        fill: url(#radial-gradient9);
      }

      .st5, .st6, .st7, .st8 {
        mix-blend-mode: overlay;
        opacity: .5;
      }

      .st6 {
        fill: url(#radial-gradient7);
      }

      .st7 {
        fill: url(#radial-gradient8);
      }

      .st8 {
        fill: url(#radial-gradient6);
      }

      .st12 {
        fill: url(#radial-gradient1);
      }

      .st13 {
        fill: url(#radial-gradient3);
      }

      .st14 {
        fill: url(#radial-gradient4);
      }
    </style>
    <radialGradient id="radial-gradient" cx="131.56" cy="664.25" fx="131.56" fy="664.25" r="115.16" gradientTransform="translate(-3.05 -440.66) scale(.88)" gradientUnits="userSpaceOnUse">
      <stop offset="0" stop-color="#308ad9"/>
      <stop offset="1" stop-color="#26a8ff"/>
    </radialGradient>
    <radialGradient id="radial-gradient1" cx="131.56" cy="664.25" fx="131.56" fy="664.25" r="115.16" gradientTransform="translate(-3.05 -440.66) scale(.88)" gradientUnits="userSpaceOnUse">
      <stop offset="0" stop-color="#26a8ff"/>
      <stop offset="1" stop-color="#308ad9"/>
    </radialGradient>
    <radialGradient id="radial-gradient2" cx="-469.63" cy="631.59" fx="-469.63" fy="631.59" r="60.83" gradientTransform="translate(-600.99 -342.68) rotate(-81.13) scale(.88 1.17)" gradientUnits="userSpaceOnUse">
      <stop offset="0" stop-color="#308ad9"/>
      <stop offset=".55" stop-color="#2f8bda"/>
      <stop offset=".74" stop-color="#2d90e1"/>
      <stop offset=".88" stop-color="#2a9aed"/>
      <stop offset="1" stop-color="#26a7fe"/>
      <stop offset="1" stop-color="#26a8ff"/>
    </radialGradient>
    <radialGradient id="radial-gradient3" cx="368.74" cy="662.51" fx="368.74" fy="662.51" r="190.11" gradientTransform="translate(-3.05 -440.66) scale(.88)" gradientUnits="userSpaceOnUse">
      <stop offset="0" stop-color="#26a8ff"/>
      <stop offset="1" stop-color="#308ad9"/>
    </radialGradient>
    <radialGradient id="radial-gradient4" cx="184.91" cy="711.26" fx="184.91" fy="711.26" r="90.81" gradientTransform="translate(-3.05 -440.66) scale(.88)" gradientUnits="userSpaceOnUse">
      <stop offset="0" stop-color="#308ad9"/>
      <stop offset="1" stop-color="#26a8ff"/>
    </radialGradient>
    <radialGradient id="radial-gradient5" cx="241.51" cy="791.5" fx="241.51" fy="791.5" r="59.72" gradientTransform="translate(-3.05 -440.66) scale(.88)" gradientUnits="userSpaceOnUse">
      <stop offset="0" stop-color="#308ad9"/>
      <stop offset=".39" stop-color="#2f8cdb"/>
      <stop offset=".66" stop-color="#2c93e4"/>
      <stop offset=".88" stop-color="#289ff3"/>
      <stop offset="1" stop-color="#26a8ff"/>
    </radialGradient>
    <radialGradient id="radial-gradient6" cx="-469.63" cy="631.59" fx="-469.63" fy="631.59" r="60.83" gradientTransform="translate(-600.99 -342.68) rotate(-81.13) scale(.88 1.17)" gradientUnits="userSpaceOnUse">
      <stop offset="0" stop-color="#308ad9"/>
      <stop offset=".55" stop-color="#2f8bda"/>
      <stop offset=".74" stop-color="#2d90e1"/>
      <stop offset=".88" stop-color="#2a9aed"/>
      <stop offset="1" stop-color="#26a7fe"/>
      <stop offset="1" stop-color="#26a8ff"/>
    </radialGradient>
    <radialGradient id="radial-gradient7" cx="241.51" cy="791.5" fx="241.51" fy="791.5" r="59.72" gradientTransform="translate(-3.05 -440.66) scale(.88)" gradientUnits="userSpaceOnUse">
      <stop offset="0" stop-color="#308ad9"/>
      <stop offset=".39" stop-color="#2f8cdb"/>
      <stop offset=".66" stop-color="#2c93e4"/>
      <stop offset=".88" stop-color="#289ff3"/>
      <stop offset="1" stop-color="#26a8ff"/>
    </radialGradient>
    <radialGradient id="radial-gradient8" cx="-469.63" cy="631.59" fx="-469.63" fy="631.59" r="60.83" gradientTransform="translate(-600.99 -342.68) rotate(-81.13) scale(.88 1.17)" gradientUnits="userSpaceOnUse">
      <stop offset="0" stop-color="#308ad9"/>
      <stop offset=".55" stop-color="#2f8bda"/>
      <stop offset=".74" stop-color="#2d90e1"/>
      <stop offset=".88" stop-color="#2a9aed"/>
      <stop offset="1" stop-color="#26a7fe"/>
      <stop offset="1" stop-color="#26a8ff"/>
    </radialGradient>
    <radialGradient id="radial-gradient9" cx="241.51" cy="791.5" fx="241.51" fy="791.5" r="59.72" gradientTransform="translate(-3.05 -440.66) scale(.88)" gradientUnits="userSpaceOnUse">
      <stop offset="0" stop-color="#308ad9"/>
      <stop offset=".39" stop-color="#2f8cdb"/>
      <stop offset=".66" stop-color="#2c93e4"/>
      <stop offset=".88" stop-color="#289ff3"/>
      <stop offset="1" stop-color="#26a8ff"/>
    </radialGradient>
  </defs>
  <g class="st3">
    <g id="Layer_1">
      <g>
        <g>
          <path class="st0" d="M147.03,216.63c4.66-6.32,9.1-12.79,13.8-19.08,15.82-21.18,32.58-41.8,54.25-54.26,5.87-24.73,1.17-46.79-10.56-68.45-10.83-19.98-24.17-37.94-40.5-54.58-6.8,16.5-17.12,29.81-28.33,43.26-20.7,25.65-30.78,46.75-21.65,81.02-17.48-9.51-35.93-13.57-55.58-13.77-17.77-.19-34.91,1.7-51.89,7.72,15.94,15.95,24.02,32.39,33.79,51.85,10.15,18.78,22.53,38.59,44.26,45.48-11.12,16.26-14.89,35.17-12.57,53.84,3.41-2.66,6.79-5.36,10.15-8.08,24.15-19.56,46.34-39.85,64.84-64.95h0Z"/>
          <path class="st12" d="M204.52,74.83c-10.8-19.94-24.11-37.85-40.4-54.48,3.51,25.88,7.36,51.68,8.28,77.82,1.25,35.91-2.33,72.93-19.13,105.28-8.4,16.18-19.75,30.55-32.5,43.67-.9.93-1.81,1.83-2.73,2.74,10.38-10.28,20.12-21.21,28.99-33.25,4.66-6.32,9.1-12.79,13.8-19.08,15.82-21.18,32.58-41.8,54.25-54.26,5.87-24.73,1.17-46.79-10.56-68.45v-.02.02Z"/>
          <path class="st2" d="M6.55,138.48c16.99-6.03,34.13-7.91,51.89-7.72,3.49.04,6.98.19,10.46.49,8.9.76,17.74,2.46,26.26,5.2,7.74,2.49,15.52,5.66,22.05,10.61.73.56,1.44,1.12,2.14,1.73,12.37,10.66,19.98,26.44,20.07,42.82,0,1.25-.03,2.52-.1,3.76,0,.22-.03.45-.04.67,0,.15-.11.49-.04.63,0,0-28.08-65.45-132.67-58.16v-.02h0Z"/>
          <path class="st13" d="M317.54,137.86c-4.1-1.19-8.27-2.14-12.46-2.97s-8.54-1.57-12.84-2.16-8.62-1.04-12.94-1.36c-3.19-.22-6.37-.36-9.56-.41-15.59-.3-31.25,1.45-45.65,7.72-3.1,1.35-6.11,2.89-9.01,4.61-21.68,12.46-38.44,33.09-54.25,54.26-4.69,6.29-9.14,12.76-13.8,19.08-18.5,25.1-40.69,45.39-64.84,64.95-3.36,2.72-6.75,5.42-10.15,8.08,28.98-2.06,56.33-14.39,80.53-29.72,1.97,3.38,2.17,6.56,2.57,9.94,2.12,17.97-.49,35.65-4.56,53.14-1.02,4.41,4.51,7.81,7.54,8.14,4.26.48,8.49-1.18,10.04-5.64,3.51-22.67,2.06-42.12-.04-65.54,23.2,28.32,56.6,34.64,90.93,26.74.8-18.26-5.56-39.54-20.66-51.97,19.52-3.79,32.71-16.52,43.84-32.98,14.31-21.68,22.59-41.58,39.55-62.96-.15.19-2.28-.4-4.23-.97h0Z"/>
          <path class="st14" d="M256.92,160.98c20.95-8.62,42.74-16.16,64.74-22.11-.49.03-2.37-.49-4.12-1-4.1-1.19-8.27-2.14-12.46-2.97-4.25-.85-8.54-1.57-12.84-2.16s-8.62-1.04-12.94-1.36c-3.19-.22-6.37-.36-9.56-.41-15.59-.3-31.25,1.45-45.65,7.72-3.1,1.35-6.11,2.89-9.01,4.61-21.68,12.46-38.44,33.09-54.25,54.26-4.69,6.29-9.14,12.76-13.8,19.08-11.27,15.29-23.92,28.79-37.54,41.43,17.24-15.42,34.25-31.1,52.9-44.87,28.98-21.4,61.28-38.52,94.55-52.22h-.02Z"/>
          <path class="st1" d="M259.05,286.73c.8-18.26-5.56-39.54-20.66-51.97,0,0-27.71-23.2-74.04-8,2.14-.7,6.18.18,8.51.32,3.19.2,6.37.49,9.53.9,6.39.83,12.73,2.13,18.85,4.19,10.8,3.65,19.16,10.5,27.29,18.27,11.44,10.96,21.28,23.47,30.54,36.28h0Z"/>
          <path class="st8" d="M6.55,138.48c16.99-6.03,34.13-7.91,51.89-7.72,3.49.04,6.98.19,10.46.49,8.9.76,17.74,2.46,26.26,5.2,7.74,2.49,15.52,5.66,22.05,10.61.73.56,1.44,1.12,2.14,1.73,12.37,10.66,19.98,26.44,20.07,42.82,0,1.25-.03,2.52-.1,3.76,0,.22-.03.45-.04.67,0,.15-.11.49-.04.63,0,0-28.08-65.45-132.67-58.16v-.02h0Z"/>
          <path class="st6" d="M259.05,286.73c.8-18.26-5.56-39.54-20.66-51.97,0,0-27.71-23.2-74.04-8,2.14-.7,6.18.18,8.51.32,3.19.2,6.37.49,9.53.9,6.39.83,12.73,2.13,18.85,4.19,10.8,3.65,19.16,10.5,27.29,18.27,11.44,10.96,21.28,23.47,30.54,36.28h0Z"/>
          <path class="st7" d="M6.55,138.48c16.99-6.03,34.13-7.91,51.89-7.72,3.49.04,6.98.19,10.46.49,8.9.76,17.74,2.46,26.26,5.2,7.74,2.49,15.52,5.66,22.05,10.61.73.56,1.44,1.12,2.14,1.73,12.37,10.66,19.98,26.44,20.07,42.82,0,1.25-.03,2.52-.1,3.76,0,.22-.03.45-.04.67,0,.15-.11.49-.04.63,0,0-28.08-65.45-132.67-58.16v-.02h0Z"/>
          <path class="st5" d="M259.05,286.73c.8-18.26-5.56-39.54-20.66-51.97,0,0-27.71-23.2-74.04-8,2.14-.7,6.18.18,8.51.32,3.19.2,6.37.49,9.53.9,6.39.83,12.73,2.13,18.85,4.19,10.8,3.65,19.16,10.5,27.29,18.27,11.44,10.96,21.28,23.47,30.54,36.28h0Z"/>
          <path class="st9" d="M72.27,289.67c1.67-1.31,3.33-2.61,4.98-3.94-1.66,1.32-3.32,2.63-4.98,3.94Z"/>
          <path class="st9" d="M161.87,196.4l-.97,1.29.97-1.29h0Z"/>
          <path class="st9" d="M161.87,196.4l-.97,1.29c-4.69,6.29-9.14,12.76-13.8,19.08-18.5,25.1-40.69,45.39-64.84,64.95-1.67,1.35-3.33,2.69-5.01,4.02-1.66,1.32-3.32,2.63-4.98,3.94-.02.02-.04.03-.05.04.02.03.04.04.05.07,4.81-.34,9.56-.98,14.27-1.86,6.68-5.66,13.27-11.4,19.72-17.38,22.7-20.95,43.91-45.11,55.6-74.14h0Z"/>
          <path class="st9" d="M164.35,20.37c0,.11.03.21.04.32l.02.02c-.02-.12-.04-.23-.06-.34h0Z"/>
          <path class="st9" d="M77.26,285.73c1.68-1.34,3.34-2.67,5.01-4.02,24.15-19.56,46.34-39.85,64.84-64.95,4.66-6.32,9.1-12.79,13.8-19.08.32-.43.63-.86.97-1.29.27-.69.57-1.38.83-2.09,7.39-18.91,11.02-39.25,12.13-59.47,2.26-38.33-4.23-76.54-10.41-114.13l-.02-.02c3.5,31.55,7.37,63.09,6.02,94.78-.91,23.45-4.49,47.1-13.13,69-15.97,41.27-51.31,70.19-85.79,96.24.05,2.94.25,5.89.61,8.81.04.06.09.12.14.18.02-.02.04-.03.05-.04,1.67-1.31,3.33-2.61,4.98-3.94h-.02,0Z"/>
          <path class="st9" d="M82.27,281.71c-1.67,1.35-3.33,2.69-5.01,4.02,1.68-1.34,3.34-2.67,5.01-4.02Z"/>
          <path class="st9" d="M72.27,289.67s-.04.03-.05.04h0s.04-.03.05-.04Z"/>
          <path class="st9" d="M90.87,274.64c.66-.56,1.32-1.11,1.99-1.68-.66.57-1.32,1.11-1.99,1.68Z"/>
          <path class="st9" d="M122.5,245.59c1.01-1.04,2.04-2.1,3.03-3.16-1,1.06-2.02,2.12-3.03,3.16Z"/>
          <path class="st9" d="M86.59,278.18c.53-.43,1.05-.87,1.58-1.32-.53.44-1.05.87-1.58,1.32Z"/>
          <path class="st9" d="M111.26,256.62c.87-.82,1.75-1.65,2.6-2.48-.86.83-1.74,1.65-2.6,2.48Z"/>
          <path class="st9" d="M107.31,260.28c.85-.77,1.69-1.54,2.52-2.32-.84.78-1.68,1.55-2.52,2.32Z"/>
          <path class="st9" d="M103.31,263.91c.81-.72,1.62-1.46,2.44-2.18-.81.73-1.61,1.46-2.44,2.18Z"/>
          <path class="st9" d="M99.21,267.5c.78-.68,1.55-1.37,2.33-2.05-.78.68-1.55,1.37-2.33,2.05Z"/>
          <path class="st9" d="M95.07,271.08c.73-.62,1.46-1.25,2.19-1.88-.72.63-1.46,1.26-2.19,1.88Z"/>
          <path class="st9" d="M115.12,252.94c.91-.88,1.81-1.76,2.71-2.64-.9.89-1.8,1.76-2.71,2.64Z"/>
          <path class="st9" d="M121.72,246.4c-.94.96-1.89,1.91-2.84,2.86.95-.95,1.9-1.9,2.84-2.86Z"/>
          <path class="st9" d="M322.04,138.97c-.07.02-.14.04-.21.05l-.02.02c.08-.03.16-.05.22-.07h0Z"/>
          <path class="st9" d="M72.22,289.71h0c1.69-1.32,3.36-2.65,5.04-3.98-1.68,1.33-3.35,2.66-5.04,3.98Z"/>
          <path class="st9" d="M142.98,222.19c-5.44,6.97-11.15,13.56-17.13,19.9,5.97-6.33,11.69-12.93,17.13-19.9h0Z"/>
          <path class="st9" d="M159.47,221.79c47.54-38.48,104.03-64.82,162.33-82.75l.02-.02c-23.84,5.82-47.3,13.35-70.22,22.34-34.51,13.54-68.02,30.78-98.04,52.78-3.57,2.63-7.09,5.31-10.57,8.05-5.44,6.97-11.15,13.57-17.13,19.9-.12.12-.21.23-.33.34-1,1.06-2.02,2.12-3.03,3.16-.26.26-.52.54-.78.8-.94.96-1.89,1.91-2.84,2.86-.35.34-.7.7-1.05,1.04-.9.89-1.8,1.76-2.71,2.64-.41.41-.84.8-1.25,1.21-.86.83-1.74,1.65-2.6,2.48-.48.45-.95.89-1.42,1.33-.84.78-1.68,1.55-2.52,2.32-.53.49-1.05.97-1.59,1.44-.81.73-1.61,1.46-2.44,2.18-.59.52-1.16,1.03-1.76,1.55-.78.68-1.55,1.37-2.33,2.05-.64.57-1.31,1.13-1.95,1.69-.72.63-1.46,1.26-2.19,1.88-.74.63-1.48,1.26-2.22,1.88-.66.57-1.32,1.11-1.99,1.68-.89.74-1.78,1.48-2.68,2.22-.53.44-1.05.87-1.58,1.32-1.43,1.18-2.89,2.36-4.33,3.54-1.67,1.35-3.33,2.68-5,4.02-1.68,1.33-3.35,2.66-5.04,3.98.02.03.04.04.05.07,4.8-.34,9.56-.98,14.26-1.85,1.6-1.36,3.19-2.71,4.77-4.1,23.2-20.27,44.37-42.55,68.17-62.02h0Z"/>
          <path class="st9" d="M77.26,285.73c1.68-1.34,3.33-2.67,5-4.02-1.67,1.35-3.33,2.68-5,4.02Z"/>
          <path class="st9" d="M125.86,242.08c-.12.12-.21.23-.33.34.12-.12.21-.23.33-.34Z"/>
          <path class="st9" d="M118.88,249.26c-.35.34-.7.7-1.05,1.04.35-.34.7-.7,1.05-1.04Z"/>
          <path class="st9" d="M95.07,271.08c-.74.63-1.48,1.26-2.22,1.88.74-.63,1.48-1.25,2.22-1.88Z"/>
          <path class="st9" d="M115.12,252.94c-.41.41-.84.8-1.25,1.21.42-.41.84-.8,1.25-1.21Z"/>
          <path class="st9" d="M122.5,245.59c-.26.26-.52.54-.78.8.26-.26.52-.54.78-.8Z"/>
          <path class="st9" d="M90.87,274.64c-.89.74-1.78,1.48-2.68,2.22.9-.74,1.79-1.48,2.68-2.22Z"/>
          <path class="st9" d="M103.31,263.91c-.59.52-1.16,1.03-1.76,1.55.59-.52,1.17-1.03,1.76-1.55Z"/>
          <path class="st9" d="M99.21,267.5c-.64.57-1.31,1.13-1.95,1.69.65-.57,1.31-1.12,1.95-1.69Z"/>
          <path class="st9" d="M111.26,256.62c-.48.45-.95.89-1.42,1.33.48-.44.95-.89,1.42-1.33Z"/>
          <path class="st9" d="M86.59,278.18c-1.43,1.18-2.89,2.36-4.33,3.54,1.45-1.17,2.89-2.36,4.33-3.54Z"/>
          <path class="st9" d="M107.31,260.28c-.53.49-1.05.97-1.59,1.44.53-.49,1.06-.96,1.59-1.44Z"/>
          <path class="st9" d="M99.47,267.34c3.59-3.13,7.12-6.31,10.59-9.54-3.47,3.23-7,6.41-10.59,9.54Z"/>
          <path class="st9" d="M94.36,271.73c1.58-1.35,3.15-2.69,4.71-4.05-1.56,1.36-3.13,2.71-4.71,4.05Z"/>
          <path class="st9" d="M125.86,242.14c-3.32,3.52-6.72,6.95-10.2,10.32,3.47-3.36,6.86-6.8,10.2-10.32h0Z"/>
          <path class="st9" d="M110.57,257.31c1.63-1.53,3.26-3.06,4.85-4.61-1.61,1.55-3.22,3.09-4.85,4.61Z"/>
          <path class="st9" d="M89.01,276.21c1.34-1.1,2.66-2.21,3.98-3.33.46-.38.91-.77,1.36-1.15,1.58-1.35,3.15-2.69,4.71-4.05.13-.12.26-.22.39-.34,3.59-3.13,7.12-6.31,10.59-9.54.18-.17.35-.33.53-.49,1.63-1.53,3.26-3.06,4.85-4.61.08-.08.17-.16.24-.23,3.47-3.36,6.86-6.8,10.2-10.32h0c-15.63,14.34-30.96,29.04-47.3,42.57,1.27-1.01,2.54-2.03,3.79-3.04,1.76-1.42,3.5-2.86,5.25-4.29.48-.39.95-.79,1.41-1.17h0Z"/>
          <path class="st9" d="M115.66,252.47c-.08.08-.17.16-.24.23.08-.08.17-.16.24-.23Z"/>
          <polygon class="st9" points="125.86 242.14 125.86 242.14 125.86 242.14 125.86 242.14"/>
          <path class="st9" d="M94.36,271.73c-.45.38-.91.77-1.36,1.15.46-.38.91-.77,1.36-1.15Z"/>
          <path class="st9" d="M110.57,257.31c-.18.17-.35.33-.53.49.18-.17.35-.33.53-.49Z"/>
          <path class="st9" d="M99.47,267.34c-.13.12-.26.22-.39.34.13-.12.26-.22.39-.34Z"/>
          <path class="st9" d="M152.74,209.05c-.79,1.11-1.59,2.22-2.39,3.33.8-1.11,1.6-2.21,2.39-3.33h0Z"/>
          <path class="st9" d="M150.35,212.38c-1.04,1.46-2.1,2.91-3.16,4.35,1.06-1.44,2.12-2.89,3.16-4.35Z"/>
          <path class="st11" d="M321.67,138.86c-29.24-4.88-62.66-7.99-90.81,2.29-5.18,1.95-10.17,4.5-14.84,7.46-8.04,4.98-15.76,10.45-23.08,16.42-11.91,9.67-22.52,20.88-31.81,33.18,4.18-15.54,13.89-29.28,25.43-40.37,7.31-6.97,15.51-12.99,24.29-17.95,8.83-5.26,18.63-9.01,28.72-10.85,19.73-3.63,40.17-1.69,59.56,2.81,5.75,1.38,11.47,2.96,17.01,5.05,1.37.51,4.06,1.65,5.53,1.97h0Z"/>
        </g>
        <rect class="st10" x="369.35" y="157.75" width="28.39" height="109.67"/>
        <path class="st10" d="M370.96,127.91c1.61,1.61,3.5,2.89,5.69,3.84s4.5,1.44,6.95,1.44,4.9-.48,7.13-1.44c2.22-.95,4.16-2.24,5.8-3.84,1.64-1.61,2.97-3.48,3.97-5.63,1-2.14,1.5-4.44,1.5-6.9s-.5-4.9-1.5-7.13c-1-2.22-2.32-4.14-3.97-5.75s-3.58-2.89-5.8-3.84-4.6-1.44-7.13-1.44-4.77.49-6.95,1.44-4.08,2.23-5.69,3.84-2.89,3.53-3.84,5.75-1.44,4.6-1.44,7.13.48,4.75,1.44,6.9c.95,2.15,2.24,4.02,3.84,5.63Z"/>
        <g>
          <g class="st3">
            <g class="st3">
              <text class="st4" transform="translate(419.71 134.88)"><tspan x="0" y="0">by</tspan></text>
            </g>
          </g>
          <path class="st9" d="M507.49,114.01h16.04v.3c0,6.66-1.99,12.07-5.78,15.74-4.02,3.9-8.82,4.96-13.24,4.96-5.65,0-9.68-1.63-13.24-5.3-3.79-3.9-5.78-9.1-5.78-14.7,0-6.06,2.44-11.31,5.66-14.52,3.32-3.37,8.63-5.84,14.63-5.84,3.49,0,7.12.74,10.15,2.44,2.55,1.4,4.71,3.41,6.3,5.84l-4.73,3.32c-1.16-1.63-2.91-3.37-4.78-4.43-2.16-1.28-4.49-1.69-6.89-1.69-5.07,0-8.35,2.09-10.26,4.02-2.56,2.56-4.14,6.71-4.14,10.91,0,3.9,1.46,7.82,4.02,10.56,2.68,2.86,6,3.9,9.75,3.9,3.37,0,6.19-1,8.7-3.44,2.16-2.09,3.02-4.37,3.26-6.59h-9.68v-5.48h.03-.01Z"/>
          <path class="st9" d="M550.33,128.65c-1.01,1.81-2.42,3.35-4.14,4.49-1.99,1.28-4.6,1.86-7.24,1.86-3.26,0-5.96-.81-8.29-3.14s-3.61-5.73-3.61-9.4,1.34-7.47,3.9-10.1c2.04-2.04,4.73-3.32,8.23-3.32,3.9,0,6.42,1.69,7.89,3.21,3.14,3.26,3.44,7.82,3.44,10.38v.7h-17.61c.12,1.75.88,3.72,2.09,4.95,1.34,1.34,2.97,1.58,4.37,1.58,1.58,0,2.74-.35,3.9-1.23.93-.72,1.71-1.64,2.28-2.68l4.78,2.68h.01l-.03.03ZM544.68,118.67c-.21-1.27-.81-2.43-1.75-3.32-.76-.7-1.99-1.4-3.84-1.4-1.99,0-3.26.81-4.02,1.58-.88.85-1.47,1.95-1.75,3.14h11.36-.01Z"/>
          <path class="st9" d="M587.53,109.69v14.05c0,1.46.06,3.14,1.05,4.43.74,1,2.09,1.69,3.72,1.69s2.99-.7,3.72-1.69c1-1.28,1.05-2.97,1.05-4.43v-14.05h5.73v14.23c0,3.14-.35,5.78-2.62,8.05-2.21,2.21-5.26,3.02-8,3.02-2.51,0-5.55-.76-7.77-3.02-2.28-2.28-2.62-4.9-2.62-8.05v-14.23h5.75Z"/>
          <path class="st9" d="M570.75,134.26v-14.05c0-1.46-.06-3.14-1.05-4.43-.74-1-2.09-1.69-3.72-1.69s-2.99.7-3.72,1.69c-1,1.28-1.05,2.97-1.05,4.43v14.05h-5.73v-14.23c0-3.14.35-5.78,2.62-8.05s5.25-3.02,8-3.02c2.51,0,5.55.76,7.77,3.02,2.28,2.28,2.62,4.9,2.62,8.05v14.23h-5.75Z"/>
          <circle class="st9" cx="611.75" cy="100.72" r="3.67"/>
          <rect class="st9" x="608.9" y="109.69" width="5.73" height="24.56"/>
          <path class="st9" d="M628.18,114.95v19.31h-5.73v-19.31h-2.39v-5.25h2.39v-8.98h5.73v8.98h4.37v5.25h-4.37Z"/>
          <path class="st9" d="M646.05,130.4l-10.5-20.71h6.89l7.01,14.35,7.12-14.35h6.42l-19.55,37.91h-6.42l9.05-17.21h-.03Z"/>
        </g>
        <path class="st10" d="M629.23,157.75h-8.43s-5.46,14.09-7.07,18.24l-.16.41c-.06.14-.1.27-.14.36l-18.35,47.31c-.85,2.15-1.63,4.25-2.36,6.32-.73,2.06-1.39,4.22-2.01,6.44-.46-2.15-1-4.29-1.61-6.44s-1.35-4.22-2.18-6.2l-25.18-61.14c-.08-.17-.17-.34-.26-.52-1.07-2.74-1.85-4.77-1.85-4.77h-30.76l47.69,109.18-22.07,47.24h27.95l2.62-6.1,64.24-150.34h-20.09,0Z"/>
        <path class="st10" d="M519.84,157.75c-4.51,0-14.41-1.52-17.56,2.65-.52.69-.84,1.5-1.16,2.29-2.55,6.38-4.91,12.82-7.3,19.26l-17.72,47.85c-.77,2.07-1.7,4.22-3.44,5.67-.33.28-.7.53-1.13.61-.96.18-1.86-.62-2.28-1.52-1.29-2.68-2.15-5.74-3.13-8.56,0,0-1.92-5.31-4.26-11.79l-14.23-39.39c-1.42-3.91-2.77-7.9-4.39-11.72-3.14-7.39-13.2-5.35-19.82-5.35s-9.69,5.25-7.15,11.65l31.06,78.11c1.78,4.48,3.54,8.98,5.28,13.47,2.62,6.76,11.96,7.2,18.06,7.03,7.41-.22,16.89-.33,20.08-8.22,6.01-14.82,11.93-29.68,17.8-44.55,5.76-14.58,12.27-29.11,17.23-43.97,2.01-6.01,2.29-13.52-5.94-13.52h.02Z"/>
      </g>
    </g>
  </g>
</svg>