<?xml version="1.0" encoding="UTF-8"?>
<svg id="Layer_1" xmlns="http://www.w3.org/2000/svg" version="1.1" viewBox="0 0 656 508">
  <!-- Generator: Adobe Illustrator 30.2.1, SVG Export Plug-In . SVG Version: 2.1.1 Build 1)  -->
  <defs>
    <style>
      .st0 {
        fill: #041e42;
      }
    </style>
  </defs>
  <rect class="st0" x="46.96" y="154.67" width="60.99" height="235.6"/>
  <path class="st0" d="M50.42,90.56c3.46,3.46,7.52,6.21,12.22,8.25s9.67,3.09,14.93,3.09,10.53-1.03,15.32-3.09c4.77-2.04,8.94-4.81,12.46-8.25,3.52-3.46,6.38-7.48,8.53-12.09,2.15-4.6,3.22-9.54,3.22-14.82s-1.07-10.53-3.22-15.32c-2.15-4.77-4.98-8.89-8.53-12.35s-7.69-6.21-12.46-8.25-9.88-3.09-15.32-3.09-10.25,1.05-14.93,3.09-8.77,4.79-12.22,8.25-6.21,7.58-8.25,12.35-3.09,9.88-3.09,15.32,1.03,10.2,3.09,14.82c2.04,4.62,4.81,8.64,8.25,12.09Z"/>
  <path class="st0" d="M605.26,154.67h-18.11s-11.73,30.27-15.19,39.18l-.34.88c-.13.3-.21.58-.3.77l-39.42,101.64c-1.83,4.62-3.5,9.13-5.07,13.58-1.57,4.43-2.99,9.07-4.32,13.84-.99-4.62-2.15-9.22-3.46-13.84-1.31-4.62-2.9-9.07-4.68-13.32l-54.09-131.35c-.17-.37-.37-.73-.56-1.12-2.3-5.89-3.97-10.25-3.97-10.25h-66.08l102.45,234.55-47.41,101.49h60.04l5.63-13.1,138.01-322.97h-43.16l.04.02Z"/>
  <path class="st0" d="M370.26,154.67c-9.69,0-30.96-3.27-37.72,5.69-1.12,1.48-1.8,3.22-2.49,4.92-5.48,13.71-10.55,27.54-15.68,41.38l-38.07,102.8c-1.65,4.45-3.65,9.07-7.39,12.18-.71.6-1.5,1.14-2.43,1.31-2.06.39-4-1.33-4.9-3.27-2.77-5.76-4.62-12.33-6.72-18.39,0,0-4.12-11.41-9.15-25.33l-30.57-84.62c-3.05-8.4-5.95-16.97-9.43-25.18-6.75-15.88-28.36-11.49-42.58-11.49s-20.82,11.28-15.36,25.03l66.73,167.8c3.82,9.62,7.6,19.29,11.34,28.94,5.63,14.52,25.69,15.47,38.8,15.1,15.92-.47,36.28-.71,43.14-17.66,12.91-31.84,25.63-63.76,38.24-95.71,12.37-31.32,26.36-62.54,37.02-94.46,4.32-12.91,4.92-29.04-12.76-29.04h.04-.04Z"/>
</svg>