<svg xmlns="http://www.w3.org/2000/svg" version="1.1" xmlns:xlink="http://www.w3.org/1999/xlink" width="512" height="512" x="0" y="0" viewBox="0 0 32 32" style="enable-background:new 0 0 512 512" xml:space="preserve" class="">
  <g>
    <path d="M27.42 15.46a8.26 8.26 0 0 0-2.42-1.7A5.5 5.5 0 1 0 16.21 8h-.42A5.5 5.5 0 1 0 7 13.76a8.32 8.32 0 0 0-4.88 7.6A2.64 2.64 0 0 0 4.77 24h3a7.64 7.64 0 0 0-.12 1.36A2.64 2.64 0 0 0 10.27 28h11.46a2.64 2.64 0 0 0 2.63-2.64 7.64 7.64 0 0 0-.12-1.36h3a2.64 2.64 0 0 0 2.63-2.64 8.3 8.3 0 0 0-2.45-5.9ZM21.5 6a3.5 3.5 0 0 1 0 7 5.49 5.49 0 0 0-3.3-4.55A3.52 3.52 0 0 1 21.5 6Zm-2 7.5A3.5 3.5 0 1 1 16 10a3.5 3.5 0 0 1 3.5 3.5ZM7 9.5a3.49 3.49 0 0 1 6.83-1.05 5.49 5.49 0 0 0-3.3 4.55A3.5 3.5 0 0 1 7 9.5ZM4.77 22a.64.64 0 0 1-.63-.64A6.35 6.35 0 0 1 10.5 15h.22a5.49 5.49 0 0 0 1.81 2.75A8.46 8.46 0 0 0 8.35 22Zm17 4h-11.5a.64.64 0 0 1-.63-.64 6.36 6.36 0 0 1 12.72 0 .64.64 0 0 1-.63.64Zm5.5-4h-3.62a8.46 8.46 0 0 0-4.18-4.24A5.49 5.49 0 0 0 21.28 15h.22a6.37 6.37 0 0 1 6.36 6.36.64.64 0 0 1-.63.64Z" fill="#343a40" opacity="1" data-original="#000000" class=""></path>
  </g>
</svg>
