<svg viewBox="0 0 991.09 1024" xmlns="http://www.w3.org/2000/svg">
  <path fill="#343a40" d="M888.04 691.66c-2.79-12.26-9.01-23.69-18-33.05-.35-.36-.7-.72-1.05-1.07-8.1-8.15-20.61-18.33-34.22-20.52-5.81-.93-11.94-.86-17.86-.79-1.87.02-3.72.05-5.54.04-4.3-.02-8.59 0-12.89 0-3.41 0-6.82.02-10.22.01l-15.11-.03c-10.53-.02-21.06-.05-31.6-.06-27.65-.04-60.42-.02-93.92.41-5.38.07-10.2.54-14.74 1.44-8.7 1.73-16.5 5.13-23.86 10.38-10.94 7.81-19.41 17.6-24.48 28.33-8.13 17.18-8.65 25.11-7.99 121.17.54 78.67.94 89.56 3.52 97.06 6.08 17.67 17.9 32.74 33.28 42.43 8.58 5.4 17.81 8.68 27.44 9.76 10.29 1.15 20.75 1.13 30.87 1.12h5.12c4.76 0 9.57.01 14.42.01 15.43 0 31.27-.04 47.26-.13l68.17-.37c2.4-.01 4.8.06 7.11.13 7.32.22 14.23.44 21.69-1.84 8.57-2.62 16.66-6.96 24.03-12.89 14.15-11.38 24.55-27 28.52-42.84 3.99-15.91 4.03-181.19.05-198.71zM825.91 791c0 18.13 0 36.26-.17 54.38-.1 10.83.95 21.72-1.25 32.43-1.19 5.78-6.35 6.53-11.34 6.55-8.01.03-16.06.08-24.09.2-16.72.24-33.44.48-50.16.48s-33.86.06-50.78.02c-8.63-.02-17.26-.04-25.89-.17-5.36-.08-13.55 1.37-17.55-3.1-1.19-1.33-1.84-3.05-2.33-4.77-2.23-7.89-1.17-16.01-1.3-24.08-.33-20.23-.17-40.47-.17-60.7 0-9.19 0-18.38.01-27.57.02-16.77-.37-33.68.78-50.43.21-3.04.19-6.62 1.27-9.52 2.74-7.38 12.34-5.23 18.8-5.35 6.37-.11 12.73-.18 19.1-.25 17.8-.18 35.6-.25 53.41-.28 21.4-.03 42.81-.17 64.2.2 4.85.08 9.7.19 14.54.49 3.9.24 6.88.77 8.99 2.11 2.63 1.68 3.9 4.61 3.9 9.82v79.53zm-353.05-58.86c-5.42-13.5-10.67-19.36-80.26-89.66-62.42-63.07-65.56-65.71-84.03-70.64-11.04-2.95-29.65-2.77-41.5.4-5.16 1.38-13.39 4.94-18.34 7.93-7.18 4.34-13.45 10.85-19.51 17.14-2.12 2.21-4.13 4.29-6.15 6.25-20.01 19.47-41.19 40.82-66.66 67.2-8.22 8.51-19.02 19.76-29.67 31.25-13.18 14.22-24.3 27.58-27.04 47.22-2.26 16.26.83 33.04 8.7 47.25 5.38 9.7 14.13 18.25 22.6 26.51 3.04 2.97 5.91 5.77 8.55 8.56 21.17 22.33 42.38 43.84 58.49 60.09 3.47 3.5 6.9 7.13 10.52 10.98 17.31 18.35 35.2 37.32 59.4 43.65 6.2 1.62 12.92 2.41 19.75 2.41 11.49 0 23.29-2.25 33.42-6.59 9.12-3.91 16.52-10.74 23.05-16.77 13.22-12.21 26.04-25.28 38.43-37.91 3.6-3.67 7.2-7.34 10.82-11 68.08-68.84 74.02-75.49 79.41-88.9 5.72-14.23 5.72-41.15 0-55.38zm-182.72 154.2c-4.45 1.07-8.1-2.26-66.49-60.65-47.69-47.69-61.77-62.7-61.77-65.83 0-3.13 13.74-17.84 59.88-64.13 32.93-33.04 61.37-60.7 63.18-61.46 1.82-.76 4.79-1 6.61-.53 1.82.47 30.62 28.13 64.01 61.46 46.75 46.67 60.71 61.53 60.71 64.64 0 5.45-118.98 124.79-126.12 126.5zm600.42-634.88c-.4-8.25-3.81-15.71-9.6-21.01-8.57-7.84-20.17-8.37-30.41-8.83-6.6-.3-13.3-.22-19.77-.15-4.32.05-8.78.1-13.16.04l-3.36-.05c-15.56-.22-31.63-.45-47.48-.46l-.03-47.15c-.04-53.46-.31-57.76-11.54-68.25-9.36-8.75-24.3-11.08-35.51-5.55-7.77 3.83-15.62 13.14-17.86 21.19-1.25 4.49-1.81 30.46-1.82 54.2v45.44c-7.01.07-14.01.17-21 .26-15.15.21-30.81.43-46.21.35-2.45-.01-4.97-.12-7.64-.23-11.12-.46-23.74-.98-33.42 5.71-9.11 6.29-14.75 16.79-14.72 27.39.01 5.34 1 13.14 5.64 20.02 4.06 6.02 9.19 9.02 17.7 10.35 4.97.78 9.79 1.2 14.33 1.25 9.95.11 20.06.04 29.84-.03 5.93-.04 11.87-.08 17.8-.09.33 0 1.3 0 2.72-.02 22.7-.19 31.66-.07 34.79.11.37 17.33.52 34.93.67 51.96.11 12.31.22 25.05.41 37.57.1 6.59.23 14.8 4.04 21.52 4.37 7.73 12.76 12 24.92 12.68 1.34.08 2.65.11 3.92.11 15.84 0 25.92-5.92 29.97-17.62 4.67-13.49 4.03-28.93 3.41-43.87-.21-4.93-.4-9.58-.4-14.09v-48.3c1.73-.06 5.31-.11 12.7-.12h.68c6.33-.04 12.67-.06 19-.09 11.08-.04 22.53-.09 33.8-.2 3.04-.03 6.08-.08 9.12-.14 5.01-.09 10.18-.18 15.27-.16 10.35.02 21.69-1.15 27.66-10.23 3.89-5.91 5.96-14.72 5.53-23.56zm-454.24 8.79c.04-18.41-.02-35.01-.16-50.74-.04-4.28.04-8.71.12-13 .28-15.35.57-31.23-4.2-46.04-6.48-20.12-20.58-37.15-37.72-45.56-17.1-8.39-36.85-8.43-55.63-7.74-22.86.83-46.14.62-68.66.41-10.83-.1-22.03-.21-33.06-.19-3.95 0-7.94-.06-12.16-.14-16.14-.28-32.84-.56-48.39 3.29-9.67 2.4-17.75 6.12-24.72 11.37-13.47 10.16-23.15 24.48-27.25 40.32-3.92 15.15-3.92 187.5 0 202.66 6.39 24.68 28.43 47.53 51.27 53.15 5.23 1.29 10.58 1.3 15.75 1.31 28.16.04 56.68.17 83.31.3 20.94.1 37.5.16 50.72.16 41.48 0 49.95-.6 56.37-2.46 13.35-3.88 22.02-9.39 33.14-21.05 11.27-11.82 17.34-24.29 19.68-40.44.19-1.28.26-2.56.34-3.8l.03-.51c1.32-21.49 1.27-43.43 1.22-64.65-.01-5.55-.03-11.1-.02-16.64zm-64.81-7.84c0 18.13 0 36.26-.17 54.38-.1 10.83.95 21.72-1.25 32.43-1.19 5.78-6.35 6.53-11.34 6.55-8.01.03-16.06.08-24.09.2-16.72.24-33.44.48-50.16.48s-33.86.06-50.78.02c-8.63-.02-17.26-.04-25.89-.17-5.36-.08-13.55 1.37-17.55-3.1-1.19-1.33-1.84-3.05-2.33-4.77-2.23-7.89-1.17-16.01-1.3-24.08-.33-20.23-.17-40.47-.17-60.7 0-9.19 0-18.38.01-27.57.02-16.77-.37-33.68.78-50.43.21-3.04.19-6.62 1.27-9.52 2.74-7.38 12.34-5.23 18.8-5.35 6.37-.11 12.73-.18 19.1-.25 17.8-.18 35.6-.25 53.41-.28 21.4-.03 42.81-.17 64.2.2 4.85.08 9.7.19 14.54.49 3.9.24 6.88.77 8.99 2.11 2.63 1.68 3.9 4.61 3.9 9.82v79.53z"/>
</svg>
