<svg viewBox="0 0 991.0926 1024" xmlns="http://www.w3.org/2000/svg"><path fill="#343a40" d="M627.005 69.553c29.245-4.267 65.796 1.707 92.335 15.087 43.766 22.065 76.374 62.137 87.907 108.023 4.357 17.338 3.868 58.15-.91 75.76-3.966 14.62-13.895 36.524-21.686 47.848-14.676 21.334-39.09 43.456-60.546 54.867-53.533 28.473-126.045 22.007-170.788-15.226-5.88-4.893-12.55-10.325-14.822-12.07l-4.13-3.173-102.674 73.635L329.02 487.94l3.403 8.346c16.24 39.827 18.6 80.046 6.838 116.517-2.377 7.37-3.967 13.76-3.53 14.195.434.435 74.795 25.9 165.246 56.587L665.43 739.38l8.798-12.313c11.428-15.993 33.062-35.956 48.586-44.84 29.178-16.693 52.26-22.173 88.23-20.95 39.852 1.357 67.715 12.107 96.104 37.08 37.965 33.395 56.223 73.207 56.223 122.6 0 34.15-7.994 61.365-25.955 88.37-23.9 35.928-62.26 61.862-102.836 69.522-21.08 3.977-53.95 2.502-73.556-3.3-57.993-17.17-102.89-65.878-113.564-123.21-1.1-5.906-2.468-20.296-3.037-31.982l-1.04-21.245-171.787-59.22c-94.485-32.57-172.975-59.247-174.425-59.28-1.45-.034-3.948 1.388-5.553 3.163-5.197 5.742-27.08 20.002-39.512 25.746-23.517 10.865-34.887 13.114-66.275 13.114-32.075 0-43.846-2.427-67.847-13.997-33.67-16.23-65.093-49.832-79.112-84.602-8.17-20.26-11.206-36.73-11.206-60.766 0-44.602 13.892-78.994 44.926-111.23 22.133-22.99 46.72-37.54 76.074-45.016 16.812-4.282 58.49-4.32 74.332-.066 22.958 6.165 37.867 13.093 55.966 26.008 4.89 3.488 9.72 5.858 10.737 5.267 1.015-.592 48.91-34.853 106.427-76.136 64.863-46.553 104.278-75.856 103.78-77.155-17.593-45.846-11.61-103.01 15.03-143.643 9.123-13.912 32.245-37.33 45.45-46.03 20.738-13.658 43.084-22.287 66.62-25.72zM212.02 470.083c-6.297-1.623-16.643-2.574-27.255-2.5-29.374.203-47.038 7.52-67.493 27.963-18.846 18.837-28.016 41.005-28.016 67.726 0 26.744 9.036 48.66 28.01 67.928 17.964 18.242 36.545 26.793 62.606 28.812 34.202 2.648 70.783-15.134 88.575-43.057 17.272-27.108 18.82-65.997 3.858-96.935-11.508-23.8-35.28-43.49-60.285-49.938zm470.516-333.256c-11.986-4.26-43.423-5.652-55.67-2.468-32.44 8.435-59.47 33.773-68.927 64.615-5.032 16.408-5.052 41.88-.044 57.883 10.37 33.15 38.34 59.202 70.974 66.118 52.332 11.088 103.454-20.474 115.42-71.26 3.788-16.066 2.438-42.23-2.93-56.827-9.858-26.813-31.788-48.46-58.824-58.063zM834.17 728.523c-28.166-8.21-58.303-4.077-82.006 11.244-51.17 33.074-58.475 106.837-14.828 149.74 19.716 19.375 40.226 27.76 67.927 27.76 27.7 0 48.21-8.385 67.926-27.76 24.04-23.633 33.52-56.286 26.27-90.5-6.863-32.39-33.594-61.25-65.29-70.484z"/></svg>
