<?xml version="1.0" encoding="UTF-8"?>
<svg id="Layer_1" xmlns="http://www.w3.org/2000/svg" version="1.1" viewBox="0 0 1024 1024">
  <!-- Generator: Adobe Illustrator 30.1.0, SVG Export Plug-In . SVG Version: 2.1.1 Build 136)  -->
  <path fill="#343a40" d="M491.07,406.93h-142.14c-14.48,0-26.32,11.84-26.32,26.32s11.84,26.32,26.32,26.32h142.14c14.48,0,26.32-11.84,26.32-26.32s-11.84-26.32-26.32-26.32Z"/>
  <path fill="#343a40" d="M675.32,538.54h-326.39c-14.48,0-26.32,11.84-26.32,26.32s11.84,26.32,26.32,26.32h326.39c14.48,0,26.32-11.84,26.32-26.32s-11.84-26.32-26.32-26.32h0Z"/>
  <path fill="#343a40" d="M961.32,313.35c-24.36-57.89-59.3-109.9-103.84-154.59-44.54-44.69-96.43-79.8-154.23-104.35-59.85-25.42-123.44-38.34-189-38.41h-1.99s-.27.26-.27.26C243.33,16.64,24.86,235.32,24.86,504.06c0,54.62,9.19,108.49,27.32,160.11,17.79,50.67,43.68,97.73,76.96,139.9l-69.14,160.56c-3.31,7.68-3.41,16.18-.28,23.95,3.09,7.68,8.94,13.65,16.47,16.83,3.88,1.72,8.08,2.59,12.49,2.59,1.72,0,3.46-.14,5.17-.41h.04s.04-.01.04-.01l256.43-45.05c51.27,18.42,104.69,27.76,158.77,27.76.75,0,1.49,0,2.24,0,268.95,0,487.77-218.82,487.77-487.8.13-65.55-12.6-129.19-37.82-189.13ZM188.85,778.36c-30.82-35.79-55.16-76.23-72.34-120.22-19.34-49.41-29.15-101.33-29.15-154.34,0-234.65,190.91-425.56,425.56-425.56h.97s.01,0,.02,0c57.09,0,112.47,11.16,164.61,33.18,50.38,21.27,95.63,51.73,134.49,90.53,38.87,38.81,69.41,84.01,90.75,134.34,22.1,52.12,33.34,107.5,33.4,164.62v1.57c0,234.8-190.91,425.82-425.56,425.82-50.19,0-99.64-9.01-146.96-26.78-3.36-1.37-7-2.07-10.81-2.07-1.84,0-3.75.16-5.68.48l-208.19,36.38,53.88-125.3c4.68-10.91,2.72-23.73-4.99-32.66Z"/>
</svg>
