<?xml version="1.0" encoding="UTF-8"?>
<svg id="Layer_1" xmlns="http://www.w3.org/2000/svg" version="1.1" viewBox="0 0 1024 1024">
  <!-- Generator: Adobe Illustrator 30.1.0, SVG Export Plug-In . SVG Version: 2.1.1 Build 136)  -->
  <path fill="#343a40" d="M997.94,360.78v-.26l-2.71-2.99c-10.07-11.09-24.43-17.46-39.42-17.47h-2.22v-24.3c-.03-31.34-12.25-60.79-34.41-82.95-22.15-22.15-51.61-34.37-82.94-34.41h-386.13c-7.68,0-15.13-2.75-20.98-7.74l-82.02-70.02c-17.36-14.81-39.49-22.97-62.31-22.98h-93.55c-31.34.04-60.79,12.25-82.95,34.41-22.15,22.15-34.37,51.61-34.41,82.93v125.05h-5.71c-14.99,0-29.36,6.38-39.42,17.48-10.07,11.11-15,26.03-13.52,40.95l41.47,422c2.76,29.01,16.18,55.81,37.76,75.44,21.58,19.62,49.53,30.43,78.69,30.43h.38s676.92,0,676.92,0h.34c29.16,0,57.11-10.81,78.69-30.43,21.58-19.63,34.99-46.43,37.75-75.47l41.48-421.97c1.32-13.5-2.6-27.01-10.81-37.69ZM137.58,340.06v-125.05c.04-29.56,24.13-53.65,53.7-53.68h93.53c7.68,0,15.13,2.75,20.97,7.74l82.03,70.02c17.36,14.82,39.49,22.98,62.32,22.98h386.12c29.56.04,53.65,24.12,53.68,53.7v24.29H137.58ZM944.26,403.73l-40.35,410.52c-1.27,13.3-7.4,25.55-17.26,34.52-9.86,8.97-22.63,13.91-35.96,13.91h-.17s-676.99,0-676.99,0h-.2c-13.33,0-26.1-4.94-35.97-13.9-9.86-8.97-15.99-21.22-17.26-34.49l-40.35-410.55h864.51Z"/>
</svg>
