<svg viewBox="0 0 991.0926 1024" xmlns="http://www.w3.org/2000/svg">
  <path d="M740.842 428.193c3.16-1.125 27.988-1.804 68.55-1.876l63.596-.114 8.258 3.916c10.273 4.87 19.322 14.17 24.284 24.956l3.798 8.26.44 223.218.444 223.217 16.442.663c17.698.71 21.68 2.356 28.823 11.916 5.155 6.9 5.82 30.808 1.154 41.362-.866 1.96-.696 3.612-1.215 5.01-3.13 8.4-31.227 7.504-459.87 7.504-428.64 0-456.738.896-459.868-7.505-.518-1.396-.348-3.05-1.215-5.008-4.667-10.554-4-34.462 1.153-41.363 7.143-9.56 11.125-11.207 28.818-11.917l16.438-.66.448-148.887c.443-147.66.476-148.948 3.94-156.32 4.384-9.332 13.743-18.654 23.598-23.51 7.506-3.7 8.376-3.745 72.845-3.745 63.274.002 65.48.108 72.928 3.552 9.254 4.278 19.332 14.005 23.76 22.934 3.146 6.35 3.26 11.187 3.686 156.455l.44 149.904h112.272v-96.57c0-93.21.116-96.883 3.374-105.592 4.07-10.87 13.923-21.5 24.448-26.364 7.462-3.45 9.636-3.556 72.938-3.556 63.302 0 65.476.106 72.94 3.556 10.523 4.864 20.378 15.493 24.447 26.364 3.258 8.71 3.374 12.38 3.374 105.593v96.57H708.63V689.072c0-213.993-.312-228.757 6.302-239.086.803-1.256 1.71-2.445 2.73-3.92 4.75-6.85 15.505-15.145 23.18-17.874zm-1.65-350.754c3.632-1.67 7.455-3.052 8.492-3.07 7.097-.14 124.05 20.42 128.645 22.612 7.657 3.653 13.133 14.597 11.627 23.242-3.877 22.275-24.967 112.907-27.37 117.638-3.75 7.37-7.328 10.564-16.536 14.74-17.657 8.01-40.21.458-44.848-15.02-1.692-5.647-1.558-9.594.788-23.34 1.552-9.1 2.576-16.794 2.274-17.094-.302-.302-36.014 20.908-79.365 47.13-44.45 26.89-82.575 48.865-87.433 50.392-13.61 4.282-27.602 5.964-37.507 4.512-4.998-.732-56.287-15.327-113.976-32.435-115.26-34.18-117.994-34.744-136.854-28.25-4.86 1.675-60.238 33.924-123.06 71.665-105.387 63.312-121.422 73.435-131.34 69.208-2.277-.972-4.234-2.702-6.88-4.72-8.28-6.318-18.125-23.304-18.125-31.28 0-6.834 5.59-17.03 11.96-21.813 9.115-6.846 246.075-150.013 253.982-153.45 4.09-1.778 13.018-3.63 19.84-4.114 12.334-.875 13.077-.683 122.237 31.53 61.17 18.052 114.217 32.83 119.738 33.36 19.915 1.904 26.663-1.127 99.698-44.778 36.415-21.763 66.23-39.992 66.258-40.507.03-.515-5.548-2.257-12.395-3.87-19.508-4.6-27.197-13.484-27.197-31.424 0-15.507 5.6-25.472 17.345-30.865zM844.08 910.153V497.197h-69.377v412.957h69.377zm-627.69 0V642.56h-69.377v267.594h69.376zm313.845 0V743.32h-69.377v166.834h69.377z" fill="#343a40" />
</svg>
