<?xml version="1.0" encoding="UTF-8"?>
<svg id="Layer_1" xmlns="http://www.w3.org/2000/svg" version="1.1" viewBox="0 0 1024 1024">
  <!-- Generator: Adobe Illustrator 30.1.0, SVG Export Plug-In . SVG Version: 2.1.1 Build 136)  -->
  <path fill="#343a40" d="M276.23,77.17h-.02s-.02,0-.02,0H109.34c-32.71,0-59.32,26.61-59.32,59.32v751.23c0,32.71,26.61,59.32,59.32,59.32h166.89c32.6-.11,59.12-26.72,59.12-59.32V136.48c0-32.6-26.52-59.21-59.12-59.31ZM108.47,887.71V136.48c0-.48.39-.88.88-.88h166.73c.47.02.84.41.84.88v751.23c0,.47-.37.86-.84.88H109.34c-.48,0-.88-.39-.88-.88Z"/>
  <path fill="#343a40" d="M239.51,233.05h-93.65c-8.07,0-14.61-6.54-14.61-14.61s6.54-14.61,14.61-14.61h93.65c8.07,0,14.61,6.54,14.61,14.61s-6.54,14.61-14.61,14.61Z"/>
  <path fill="#343a40" d="M239.51,315.3h-93.65c-8.07,0-14.61-6.54-14.61-14.61s6.54-14.61,14.61-14.61h93.65c8.07,0,14.61,6.54,14.61,14.61s-6.54,14.61-14.61,14.61Z"/>
  <path fill="#343a40" d="M239.51,738.11h-93.65c-8.07,0-14.61-6.54-14.61-14.61s6.54-14.61,14.61-14.61h93.65c8.07,0,14.61,6.54,14.61,14.61s-6.54,14.61-14.61,14.61Z"/>
  <path fill="#343a40" d="M239.51,820.36h-93.65c-8.07,0-14.61-6.54-14.61-14.61s6.54-14.61,14.61-14.61h93.65c8.07,0,14.61,6.54,14.61,14.61s-6.54,14.61-14.61,14.61Z"/>
  <path fill="#343a40" d="M502.93,77.17h-166.26c-32.71,0-59.32,26.61-59.32,59.32v751.23c0,32.71,26.61,59.32,59.32,59.32h166.26c32.71,0,59.32-26.61,59.32-59.32V136.48c0-32.71-26.61-59.32-59.32-59.32ZM503.8,136.48v751.23c0,.48-.39.88-.88.88h-166.26c-.48,0-.88-.39-.88-.88V136.48c0-.48.39-.88.88-.88h166.26c.48,0,.88.39.88.88Z"/>
  <path fill="#343a40" d="M466.4,233.05h-93.65c-8.07,0-14.61-6.54-14.61-14.61s6.54-14.61,14.61-14.61h93.65c8.07,0,14.61,6.54,14.61,14.61s-6.54,14.61-14.61,14.61Z"/>
  <path fill="#343a40" d="M466.4,315.3h-93.65c-8.07,0-14.61-6.54-14.61-14.61s6.54-14.61,14.61-14.61h93.65c8.07,0,14.61,6.54,14.61,14.61s-6.54,14.61-14.61,14.61Z"/>
  <path fill="#343a40" d="M466.4,738.11h-93.65c-8.07,0-14.61-6.54-14.61-14.61s6.54-14.61,14.61-14.61h93.65c8.07,0,14.61,6.54,14.61,14.61s-6.54,14.61-14.61,14.61Z"/>
  <path fill="#343a40" d="M466.4,820.36h-93.65c-8.07,0-14.61-6.54-14.61-14.61s6.54-14.61,14.61-14.61h93.65c8.07,0,14.61,6.54,14.61,14.61s-6.54,14.61-14.61,14.61Z"/>
  <path fill="#343a40" d="M971.98,838.05L777.54,112.42c-6.87-26.21-30.56-44.51-57.63-44.51-4.88,0-9.77.61-14.54,1.8l-.14.04-.14.04-160.61,43.8c-15.5,4.03-28.81,14.38-36.52,28.41l-.03.05-.03.05c-2.31,4.28-3.53,9.12-3.51,13.99v33.21c-.2,2.16-.16,4.34.12,6.49l.12.95.25.92,190.95,714.12v.03s.02.03.02.03c7.05,25.87,30.7,43.93,57.51,43.93.02,0,.05,0,.07,0,.96.05,1.92.07,2.87.07,4.07,0,8.16-.42,12.15-1.26l.43-.09.42-.12,160.66-43.82.21-.06c15.26-4.09,28.01-13.89,35.91-27.58,7.9-13.69,9.99-29.64,5.9-44.9ZM914.61,853.41l-.09.02-.09.02-160.66,43.82h0c-.08.02-.16.04-.24.04-.18,0-.69-.12-.84-.65l-189.72-708.19v-18.62l157.16-42.86c.06-.01.11-.02.16-.02.18,0,.68.12.83.64l194,724.88c.11.43-.12.83-.51.93Z"/>
  <path fill="#343a40" d="M615.71,255.26c-8.07,1.05-15.46-4.64-16.51-12.71-1.05-8.07,4.64-15.46,12.71-16.51l90-23.81c7.71-2.36,15.89,1.97,18.25,9.69,2.36,7.71-1.97,15.89-9.69,18.25-.32.1-.64.18-.97.26l-90.43,24.25c-1.09.33-2.22.52-3.36.58h0Z"/>
  <path fill="#343a40" d="M636.9,334.73c-8.07,1.05-15.46-4.64-16.51-12.71-1.05-8.07,4.64-15.46,12.71-16.51l90.43-24.25c7.91-2.1,16.02,2.61,18.12,10.52,2.1,7.91-2.61,16.02-10.52,18.12l-90.43,24.25c-1.23.36-2.51.56-3.8.58h0Z"/>
  <path fill="#343a40" d="M745.74,742.93c-8.07,1.05-15.46-4.64-16.51-12.71-1.05-8.07,4.64-15.46,12.71-16.51l91.46-23.67c7.71-2.36,15.89,1.97,18.25,9.69,2.36,7.71-1.97,15.89-9.69,18.25-.32.1-.64.18-.97.26l-90.87,24.25c-1.43.37-2.91.51-4.38.44Z"/>
  <path fill="#343a40" d="M767.65,822.4c-8.07,1.05-15.46-4.64-16.51-12.71-1.05-8.07,4.64-15.46,12.71-16.51l90.43-24.25c7.71-2.36,15.89,1.97,18.25,9.69s-1.97,15.89-9.69,18.25c-.32.1-.64.18-.97.26l-90.43,24.25c-1.21.51-2.49.85-3.8,1.02h0Z"/>
</svg>
