<svg xmlns="http://www.w3.org/2000/svg" version="1.1" xmlns:xlink="http://www.w3.org/1999/xlink" width="512" height="512" x="0" y="0" viewBox="0 0 68 68" style="enable-background:new 0 0 512 512" xml:space="preserve" class="">
  <g>
    <path d="m25.997 7.16.731-3.897A4 4 0 0 1 30.66 0h6.68a4 4 0 0 1 3.932 3.263l.73 3.898a27.838 27.838 0 0 1 5.316 2.203l3.275-2.24a4 4 0 0 1 5.087.473l4.723 4.723a4 4 0 0 1 .473 5.087l-2.24 3.275a27.838 27.838 0 0 1 2.203 5.315l3.898.731A4 4 0 0 1 68 30.66v6.68a4 4 0 0 1-3.263 3.932l-3.898.73a27.838 27.838 0 0 1-2.203 5.316l2.24 3.275a4 4 0 0 1-.473 5.087l-4.723 4.723a4 4 0 0 1-5.087.473l-3.275-2.24a27.838 27.838 0 0 1-5.315 2.203l-.731 3.898A4 4 0 0 1 37.34 68h-6.68a4 4 0 0 1-3.932-3.263l-.73-3.898a27.838 27.838 0 0 1-5.316-2.203l-3.275 2.24a4 4 0 0 1-5.087-.473L7.597 55.68a4 4 0 0 1-.473-5.087l2.24-3.275a27.838 27.838 0 0 1-2.203-5.315l-3.898-.731A4 4 0 0 1 0 37.34v-6.68a4 4 0 0 1 3.263-3.932l3.898-.73a27.838 27.838 0 0 1 2.203-5.316l-2.24-3.275a4 4 0 0 1 .473-5.087l4.723-4.723a4 4 0 0 1 5.087-.473l3.275 2.24a27.838 27.838 0 0 1 5.315-2.203zm-4.377 6.275a2 2 0 0 1-2.163-.062l-4.308-2.948-4.724 4.724 2.948 4.308a2 2 0 0 1 .062 2.163 23.845 23.845 0 0 0-2.733 6.593 2 2 0 0 1-1.573 1.485L4 30.66v6.68l5.129.962a2 2 0 0 1 1.573 1.485 23.845 23.845 0 0 0 2.733 6.593 2 2 0 0 1-.062 2.163l-2.948 4.308 4.724 4.724 4.308-2.948a2 2 0 0 1 2.163-.062 23.845 23.845 0 0 0 6.593 2.733 2 2 0 0 1 1.485 1.573L30.66 64h6.68l.962-5.129a2 2 0 0 1 1.485-1.573 23.845 23.845 0 0 0 6.593-2.733 2 2 0 0 1 2.163.062l4.308 2.948 4.724-4.724-2.948-4.308a2 2 0 0 1-.062-2.163 23.845 23.845 0 0 0 2.733-6.593 2 2 0 0 1 1.573-1.485L64 37.34v-6.68l-5.129-.962a2 2 0 0 1-1.573-1.485 23.845 23.845 0 0 0-2.733-6.593 2 2 0 0 1 .062-2.163l2.948-4.308-4.724-4.724-4.308 2.948a2 2 0 0 1-2.163.062 23.845 23.845 0 0 0-6.593-2.733 2 2 0 0 1-1.485-1.573L37.34 4h-6.68l-.962 5.129a2 2 0 0 1-1.485 1.573 23.845 23.845 0 0 0-6.593 2.733zM34 48c-7.732 0-14-6.268-14-14s6.268-14 14-14 14 6.268 14 14-6.268 14-14 14zm0-4c5.523 0 10-4.477 10-10s-4.477-10-10-10-10 4.477-10 10 4.477 10 10 10z" fill="#343a40" opacity="1" data-original="#000000"></path>
  </g>
</svg>
