<?xml version="1.0" encoding="UTF-8"?>
<svg id="Layer_1" xmlns="http://www.w3.org/2000/svg" xmlns:xlink="http://www.w3.org/1999/xlink" version="1.1" viewBox="0 0 991.09 1024">
  <!-- Generator: Adobe Illustrator 30.1.0, SVG Export Plug-In . SVG Version: 2.1.1 Build 136)  -->
  <defs>
    <style>
      .st0 {
        fill: url(#linear-gradient2);
      }

      .st1 {
        fill: url(#linear-gradient1);
      }

      .st2 {
        fill: url(#linear-gradient);
      }
    </style>
    <linearGradient id="linear-gradient" x1="214.83" y1="846.56" x2="549.91" y2="846.56" gradientUnits="userSpaceOnUse">
      <stop offset="0" stop-color="#28468f"/>
      <stop offset="1" stop-color="#173560"/>
    </linearGradient>
    <linearGradient id="linear-gradient1" x1="18.32" y1="327.76" x2="600.05" y2="327.76" gradientUnits="userSpaceOnUse">
      <stop offset="0" stop-color="#26a8ff"/>
      <stop offset="1" stop-color="#0d6efd"/>
    </linearGradient>
    <linearGradient id="linear-gradient2" x1="559.22" y1="555.15" x2="971.26" y2="555.15" gradientUnits="userSpaceOnUse">
      <stop offset="0" stop-color="#ffc107"/>
      <stop offset="1" stop-color="#fd7e14"/>
    </linearGradient>
  </defs>
  <path class="st2" d="M545.75,832.48c-4.8-8.82-14.59-16.65-24.6-19.66-31.08-9.35-45.91-17.46-63.65-34.81-16.2-15.83-31.36-39.91-37.97-60.28-3.15-9.71-10.81-25.39-14.28-29.22-5.14-5.68-11.53-7.96-22.36-7.95-7.24,0-11.91.94-15.36,3.07h0c-8.05,4.98-10.19,8.39-18.22,29.18-13.88,35.9-26.32,54.76-47.52,71.97-9.46,7.68-33.89,19.5-60.62,29.32-8.57,3.15-23.13,16.71-23.13,21.55,0,1.81-.74,3.74-1.65,4.3-2.56,1.59-1.89,9.23,1.47,16.62,4.52,9.95,13.84,16.3,34.68,23.64,32.36,11.4,54.83,26.98,70.25,48.71,9.35,13.17,23.5,41.55,26.54,53.22,4.58,17.57,18.07,30.45,31.87,30.42,15.28-.03,25.91-8.76,32.56-26.74,11.22-30.35,23.91-52.06,40.1-68.63,15.12-15.47,24.16-21.25,47.03-30.1,39.74-15.37,43.83-18.05,47.45-31.09,2.66-9.59,2.07-14.97-2.59-23.53ZM421.99,848.81c-.86,3.11-1.84,3.75-11.33,7.42-5.46,2.11-7.62,3.49-11.23,7.19-3.87,3.96-6.9,9.14-9.57,16.38-1.59,4.29-4.12,6.38-7.77,6.38-3.29,0-6.52-3.07-7.61-7.26-.73-2.79-4.1-9.56-6.34-12.71-3.68-5.19-9.05-8.91-16.77-11.63-4.97-1.75-7.2-3.27-8.28-5.64-.8-1.76-.96-3.59-.35-3.97.22-.13.39-.6.39-1.03,0-1.15,3.48-4.39,5.52-5.14,6.38-2.34,12.22-5.17,14.47-7,5.06-4.11,8.03-8.61,11.35-17.18,1.92-4.96,2.43-5.78,4.35-6.97h0c.82-.51,1.94-.73,3.67-.73,2.58,0,4.11.54,5.34,1.9.83.91,2.66,4.66,3.41,6.98,1.58,4.87,5.2,10.61,9.07,14.39,4.24,4.14,7.78,6.08,15.2,8.31,2.39.72,4.73,2.59,5.87,4.69,1.11,2.04,1.25,3.33.62,5.62Z"/>
  <path class="st1" d="M597.53,312.03c-2.93-7-10.59-12.18-21.68-14.66-15.31-3.43-44.7-13.68-63.66-22.2-87.34-39.24-146.16-113.1-172.14-216.14-1.79-7.1-9.63-16.76-16.45-20.29-6.26-3.23-22.71-2.97-27.61.45h0c-7.96,5.55-13.89,17.36-23.45,46.76-5.28,16.25-13.69,37.94-18.68,48.2-26.38,54.2-67.33,97.73-121.1,128.73-16.55,9.54-32.72,16.05-65.03,26.2-32.42,10.18-40.21,14.67-46.41,26.76-3.8,7.42-3.96,13.43-.61,22.93,4.76,13.49,9.25,16.04,53.36,30.25,68.19,21.98,122.62,63.53,161.39,123.21,14.35,22.09,18.1,30.01,29.73,62.77,4.1,11.57,8.22,23.13,12.36,34.69,1.23,3.39,2.45,6.79,3.65,10.2,4.33,12.31,21.48,21.09,36.74,18.8,13.06-1.96,18.67-9.05,25.54-32.3,6.54-22.11,8.72-28.7,13.67-41.3,17.78-45.27,46.99-86.51,82.05-115.87,32.49-27.21,61.83-43.85,100.11-56.8,46.45-15.71,52.6-18.81,58.1-29.35,3.46-6.63,3.52-22.91.11-31.05ZM388.46,331.97c-1.51,2.9-3.2,3.75-15.98,8.07-10.53,3.56-18.6,8.14-27.54,15.62-9.64,8.07-17.68,19.42-22.57,31.87-1.36,3.46-1.96,5.28-3.76,11.36-1.89,6.4-3.43,8.35-7.03,8.88-4.2.63-8.91-1.79-10.11-5.17-.33-.94-.67-1.87-1-2.8-1.14-3.18-2.27-6.36-3.4-9.54-3.2-9.01-4.23-11.19-8.18-17.26-10.66-16.41-25.63-27.84-44.39-33.89-12.13-3.91-13.37-4.61-14.68-8.32-.92-2.61-.88-4.27.17-6.31,1.71-3.33,3.85-4.56,12.77-7.36,8.89-2.79,13.33-4.58,17.88-7.21,14.79-8.53,26.05-20.5,33.31-35.41,1.37-2.82,3.69-8.79,5.14-13.26,2.63-8.09,4.26-11.34,6.45-12.86h0c1.35-.94,5.87-1.01,7.6-.12,1.88.97,4.03,3.63,4.52,5.58,7.14,28.34,23.32,48.65,47.35,59.45,5.22,2.34,13.3,5.16,17.51,6.11,3.05.68,5.15,2.11,5.96,4.03.94,2.24.92,6.72-.03,8.54Z"/>
  <path class="st0" d="M965.71,536.16c-5.63-7.38-12.41-10.85-32.23-16.47-35.39-10.05-56.59-22.45-82.02-47.98-26.32-26.42-43.67-55.55-52.87-88.75-5.87-21.2-8.55-25.27-19.95-30.31-11.38-5.03-14.35-5.08-23.52-.39h0c-12.51,6.4-17.22,13.35-24.89,36.74-11.57,35.26-26.05,59.88-48.47,82.43-22.04,22.16-45.11,35.7-80.74,47.37-30.72,10.06-37.89,15.14-41.2,29.15-1.08,4.59-.73,8.78,1.35,15.87,3.34,11.41,10.14,18.28,20.67,20.86,50.22,12.3,91.14,38.93,120.62,78.47,15.46,20.74,20.97,33.26,31.89,72.43,4.13,14.84,15.57,25.9,26.77,25.9,8.27,0,21.51-4.87,26.31-9.66,3.27-3.28,6.73-10.97,11.79-26.21,16.58-49.99,39.56-81.58,79.95-109.94,20.78-14.59,38.41-22.33,70.26-30.85,8.94-2.39,17.79-10.11,20.29-17.69,3.17-9.61,1.31-24.02-3.99-30.98ZM824.79,558.64c-.73,2.21-3.31,4.46-5.91,5.15-9.28,2.48-14.41,4.74-20.46,8.98-11.76,8.26-18.45,17.46-23.28,32.02-1.47,4.44-2.48,6.68-3.43,7.63-1.4,1.4-5.25,2.81-7.66,2.81-3.26,0-6.59-3.22-7.8-7.54-3.18-11.41-4.78-15.05-9.29-21.1-8.58-11.52-20.5-19.27-35.13-22.85-3.07-.75-5.05-2.75-6.02-6.07-.6-2.07-.71-3.29-.39-4.62.96-4.08,3.05-5.56,12-8.49,10.38-3.4,17.1-7.34,23.52-13.8,6.53-6.57,10.75-13.74,14.12-24.01,2.24-6.81,3.61-8.84,7.25-10.7h0c2.67-1.37,3.53-1.35,6.85.11,3.32,1.47,4.1,2.65,5.81,8.83,2.68,9.67,7.73,18.15,15.4,25.85,7.41,7.44,13.58,11.05,23.89,13.97,5.77,1.64,7.75,2.65,9.39,4.8,1.55,2.03,2.09,6.22,1.16,9.02Z"/>
</svg>