<svg xmlns="http://www.w3.org/2000/svg" version="1.1" xmlns:xlink="http://www.w3.org/1999/xlink" width="512" height="512" x="0" y="0" viewBox="0 0 193.826 193.826" style="enable-background:new 0 0 512 512" xml:space="preserve" class="">
  <g>
    <path d="M191.495 55.511 137.449 1.465a4.998 4.998 0 0 0-7.07 0l-.229.229a17.43 17.43 0 0 0-5.14 12.406c0 3.019.767 5.916 2.192 8.485l-56.55 48.533c-4.328-3.868-9.852-5.985-15.703-5.985a23.444 23.444 0 0 0-16.689 6.913l-.339.339a4.998 4.998 0 0 0 0 7.07l32.378 32.378-31.534 31.533c-.631.649-15.557 16.03-25.37 28.27-9.345 11.653-11.193 13.788-11.289 13.898a4.995 4.995 0 0 0 .218 6.822 4.987 4.987 0 0 0 3.543 1.471c1.173 0 2.349-.41 3.295-1.237.083-.072 2.169-1.885 13.898-11.289 12.238-9.813 27.619-24.74 28.318-25.421l31.483-31.483 30.644 30.644c.976.977 2.256 1.465 3.535 1.465s2.56-.488 3.535-1.465l.339-.339a23.446 23.446 0 0 0 6.913-16.689 23.43 23.43 0 0 0-5.985-15.703l48.533-56.55a17.434 17.434 0 0 0 8.485 2.192c4.687 0 9.093-1.825 12.406-5.14l.229-.229a5 5 0 0 0 0-7.072z" fill="#308ad9" opacity="1" data-original="#000000" class=""></path>
  </g>
</svg>
