<svg viewBox="0 0 1024 1024.4466" xmlns="http://www.w3.org/2000/svg"><path d="M495.786 130.53c15.478-3.827 32.33-2.07 45.862 4.777 11.28 5.708 25.75 21.434 30.3 32.928l4.052 10.24.494 135.254.494 135.253h134.696c131.69 0 134.904.078 144.062 3.504 23.038 8.62 40.218 34.096 40.218 59.642 0 25.54-16.708 50.463-40.156 59.91l-10.154 4.09-134.332.493-134.332.496-.496 134.33L576 845.784l-4.09 10.154c-9.446 23.448-34.37 40.156-59.91 40.156s-50.464-16.708-59.91-40.156L448 845.783l-.494-134.332-.496-134.33-134.332-.497-134.332-.494-10.154-4.09c-29.802-12.007-46.852-47.22-37.61-77.687 5.714-18.836 20.736-35.528 37.672-41.866 9.158-3.426 12.372-3.504 144.062-3.504h134.696l.494-135.254.494-135.255 4.052-10.24c2.862-7.232 6.93-13.074 13.85-19.89 11.06-10.894 17.566-14.772 29.884-17.816z" fill="#212529" /></svg>
