<svg xmlns="http://www.w3.org/2000/svg" style="enable-background:new 0 0 512 512" xml:space="preserve" viewBox="0 0 512 512">
  <path d="m496.8 240.9-116.9.5 33.4-33.4c5.9-6 5.7-15.6-.3-21.5-5.9-5.7-15.3-5.7-21.2 0L332.4 246c-5.9 5.9-5.9 15.5 0 21.5l59.5 59.5c6 5.9 15.6 5.7 21.5-.3 5.7-5.9 5.7-15.3 0-21.2l-33.6-33.6 117.2-.5c8.4 0 15.2-6.8 15.2-15.2-.2-8.5-7-15.3-15.4-15.3zm-229.4 91.5c-5.9-5.9-15.5-5.9-21.5 0l-59.4 59.5c-5.9 5.9-5.9 15.6 0 21.5s15.6 5.9 21.5 0l33.4-33.4-.5 116.8c0 8.4 6.7 15.2 15.1 15.3h.1c8.4 0 15.2-6.8 15.2-15.1l.5-117.2 33.6 33.6c6 5.9 15.6 5.7 21.5-.3 5.7-5.9 5.7-15.3 0-21.2zm-22.8-152.8c5.9 5.9 15.5 5.9 21.5 0l59.5-59.5c5.9-5.9 5.9-15.6 0-21.5s-15.6-5.9-21.5 0L270.7 132l.5-116.8C271.1 6.9 264.4 0 256 0h-.1c-8.4 0-15.2 6.8-15.2 15.1l-.5 117.2-33.6-33.6c-6-5.9-15.6-5.7-21.5.3-5.7 5.9-5.7 15.3 0 21.2zm-65 65-59.5-59.4c-6-5.9-15.6-5.7-21.5.3-5.7 5.9-5.7 15.3 0 21.2l33.6 33.6-117.2.5c-8.4 0-15.2 6.8-15.2 15.2s6.8 15.2 15.2 15.2h.1l116.8-.5L98.7 304c-6 5.9-6.1 15.5-.3 21.5s15.5 6.1 21.5.3l.3-.3 59.5-59.5c5.8-5.9 5.8-15.5-.1-21.4z" data-original="#000000"/>
</svg>
