<svg xmlns="http://www.w3.org/2000/svg" viewBox="0 0 64 64" style="enable-background:new 0 0 512 512" xml:space="preserve">
  <path fill="#041e42" d="M60.55 57.29 40.85 24.9V7.22h.54c.54 0 .97-.44.97-.97V.97a.97.97 0 0 0-.97-.97H22.61a.97.97 0 0 0-.97.97v5.28c0 .53.43.97.97.97h.54V24.9L3.42 57.35a4.54 4.54 0 0 0 .17 4.47A4.524 4.524 0 0 0 7.48 64h49.04c1.6 0 3.05-.81 3.89-2.18.84-1.38.9-3.05.14-4.53zM23.58 1.94h16.84v3.35H23.58zm1.38 23.74c.09-.16.14-.33.14-.5V7.22h13.82v17.95c0 .17.05.35.14.5l5.79 9.51H19.17zm33.8 35.12c-.48.8-1.32 1.26-2.24 1.26H7.48c-.92 0-1.76-.47-2.24-1.26s-.51-1.75-.13-2.5l12.87-21.17h28.03l12.84 21.1c.43.82.39 1.78-.09 2.57z" data-original="#2b2f64"/>
  <path fill="#d7d6d6" d="M23.58 1.94h16.84v3.35H23.58z" data-original="#d7d6d6"/>
  <path fill="#ededee" d="M44.84 35.19H19.17l5.79-9.51c.09-.16.14-.33.14-.5V7.22h13.82v17.95c0 .17.05.35.14.5z" data-original="#ededee"/>
  <path fill="#007bff" d="m58.86 58.23-12.84-21.1H17.99L5.12 58.3c-.39.76-.35 1.72.13 2.5.48.8 1.32 1.26 2.24 1.26h49.04c.92 0 1.76-.47 2.24-1.26.47-.79.51-1.75.09-2.57zm-25.35-3.62a4.801 4.801 0 0 1 0-9.6c2.64 0 4.79 2.15 4.79 4.8s-2.15 4.8-4.79 4.8zm9.85-13.77c1.94 0 3.53 1.59 3.53 3.53 0 1.95-1.59 3.54-3.53 3.54-1.95 0-3.54-1.59-3.54-3.54 0-1.94 1.59-3.53 3.54-3.53zm.78 18.36c-2.17 0-3.95-1.76-3.95-3.95 0-2.17 1.77-3.94 3.95-3.94s3.95 1.76 3.95 3.94c0 2.19-1.78 3.95-3.95 3.95z" data-original="#4fbee6"/>
  <path fill="#d7d6d6" d="M44.84 35.19h-2.3l-4.34-7.2c-.07-.14-.82-1.26-.82-1.42V7.22h1.54v17.95c0 .17.05.35.14.5zM26.63 7.22v19.35c0 .16-.75 1.28-.82 1.42l-4.34 7.2h-2.3l5.79-9.51c.09-.16.14-.33.14-.5V7.22z" data-original="#d7d6d6"/>
  <path fill="#465fff" d="M58.76 60.8c-.48.8-1.32 1.26-2.24 1.26H7.48c-.92 0-1.76-.47-2.24-1.26s-.51-1.75-.13-2.5l12.87-21.17h2.32L8.36 56.94c-.34.68-.3 1.52.12 2.22.43.71 1.15 1.12 1.97 1.12h43.12c.81 0 1.54-.42 1.97-1.12.42-.7.46-1.54.09-2.28L43.71 37.13h2.31l12.84 21.1c.41.82.38 1.78-.1 2.57z" data-original="#38a9da"/>
  <path fill="#007bff" d="M33.33 53.67c-2.33 0-4.22-1.91-4.22-4.26s1.89-4.26 4.22-4.26c2.32 0 4.21 1.91 4.21 4.26s-1.89 4.26-4.21 4.26zm8.66-12.22c1.71 0 3.1 1.41 3.1 3.13 0 1.73-1.4 3.14-3.1 3.14-1.71 0-3.11-1.41-3.11-3.14 0-1.72 1.4-3.13 3.11-3.13zm.69 16.29c-1.91 0-3.47-1.57-3.47-3.5s1.56-3.49 3.47-3.49 3.47 1.57 3.47 3.49c0 1.94-1.56 3.5-3.47 3.5z" data-original="#4fbee6"/>
  <path fill="#041e42" d="M33.51 45.01a4.801 4.801 0 0 0 0 9.6 4.8 4.8 0 0 0 4.79-4.8c0-2.64-2.15-4.8-4.79-4.8zm0 7.66a2.86 2.86 0 1 1 0-5.72c1.57 0 2.85 1.29 2.85 2.86 0 1.58-1.28 2.86-2.85 2.86z" data-original="#2b2f64"/>
  <path fill="#ededee" d="M36.36 49.81c0 1.58-1.28 2.86-2.85 2.86a2.86 2.86 0 1 1 0-5.72c1.57 0 2.85 1.29 2.85 2.86z" data-original="#ededee"/>
  <path fill="#041e42" d="M44.14 51.32c-2.17 0-3.95 1.76-3.95 3.94s1.77 3.95 3.95 3.95 3.95-1.76 3.95-3.95c0-2.18-1.78-3.94-3.95-3.94zm0 5.94c-1.11 0-2.01-.9-2.01-2.01s.9-2 2.01-2 2.01.89 2.01 2-.91 2.01-2.01 2.01z" data-original="#2b2f64"/>
  <path fill="#ededee" d="M46.15 55.25a2.01 2.01 0 0 1-4.02 0c0-1.11.9-2 2.01-2s2.01.9 2.01 2z" data-original="#ededee"/>
  <path fill="#041e42" d="M43.36 40.84c-1.95 0-3.54 1.59-3.54 3.53 0 1.95 1.59 3.54 3.54 3.54 1.94 0 3.53-1.59 3.53-3.54 0-1.94-1.59-3.53-3.53-3.53zm0 5.13c-.88 0-1.6-.72-1.6-1.6 0-.87.72-1.59 1.6-1.59.87 0 1.59.72 1.59 1.59 0 .89-.71 1.6-1.59 1.6z" data-original="#2b2f64"/>
  <path fill="#ffc107" d="M44.95 44.37c0 .88-.72 1.6-1.59 1.6-.88 0-1.6-.72-1.6-1.6a1.594 1.594 0 0 1 3.19 0z" data-original="#ededee"/>
</svg>
