<svg viewBox="0 0 1024 1024.008" xmlns="http://www.w3.org/2000/svg"><path d="M496.94 194.517C155.562 314.155 63.316 347.093 58.367 351.104c-19.755 16-19.925 49.835-.34 65.45 3.284 2.603 89.3 41.73 191.145 86.913 101.846 45.226 186.07 83.114 187.18 84.18 1.066 1.11 38.954 85.334 84.18 187.18 45.184 101.845 84.31 187.86 86.912 191.146 15.574 19.584 49.45 19.414 65.45-.298 7.596-9.43 308.396-868.822 308.396-881.195a42.24 42.24 0 0 0-42.623-41.6c-7.894.085-78.848 24.448-441.728 151.637m120.788 151.126l-157.91 157.952-127.06-56.448a7327.915 7327.915 0 0 1-128.385-57.77c-.938-.94 563.968-200.492 570.454-201.516a24046.933 24046.933 0 0 1-157.1 157.783M828.8 270.08c-4.053 11.52-49.11 140.117-100.096 285.867-50.987 145.75-93.14 264.96-93.696 264.917-.555-.043-26.58-57.77-57.856-128.3L520.277 564.31l157.568-157.57c86.656-86.655 157.74-157.567 157.952-157.567.214 0-2.944 9.387-6.997 20.907"/></svg>