<svg xmlns="http://www.w3.org/2000/svg" viewBox="0 0 477.867 477.867" style="enable-background:new 0 0 512 512" xml:space="preserve">
  <path d="M238.933 0C106.974 0 0 106.974 0 238.933s106.974 238.933 238.933 238.933 238.933-106.974 238.933-238.933C477.726 107.033 370.834.141 238.933 0zM106.224 82.738a204.594 204.594 0 0 1 132.709-48.604 203.84 203.84 0 0 1 132.113 48.555L82.62 371.115C9.505 284.963 20.073 155.853 106.224 82.738zm265.419 312.391a204.594 204.594 0 0 1-132.709 48.604 203.84 203.84 0 0 1-132.113-48.555l288.427-288.427c73.114 86.152 62.546 215.263-23.605 288.378z" fill="#343a40" data-original="#000000"/>
</svg>
