<svg xmlns="http://www.w3.org/2000/svg" viewBox="0 0 16 16" style="enable-background:new 0 0 512 512" xml:space="preserve">
  <clipPath id="a">
    <path d="M0 0h16v16H0z" fill="#343a40" />
  </clipPath>
  <g fill-rule="evenodd" clip-path="url(#a)" clip-rule="evenodd">
    <path d="M8 0a1 1 0 0 1 1 1v3a1 1 0 0 1-2 0V1a1 1 0 0 1 1-1z" fill="#343a40" />
    <path d="M8 11a1 1 0 0 1 1 1v3a1 1 0 1 1-2 0v-3a1 1 0 0 1 1-1z" fill="#343a4040" />
    <path d="M16 8a1 1 0 0 1-1 1h-3a1 1 0 1 1 0-2h3a1 1 0 0 1 1 1z" fill="#343a4020" />
    <path d="M5 8a1 1 0 0 1-1 1H1a1 1 0 0 1 0-2h3a1 1 0 0 1 1 1z" fill="#343a4060" />
    <path d="M13.657 13.657a1 1 0 0 1-1.414 0l-2.122-2.121a1 1 0 1 1 1.415-1.415l2.12 2.122a1 1 0 0 1 0 1.414z" fill="#343a4030" />
    <path d="M5.879 5.879a1 1 0 0 1-1.415 0L2.343 3.757a1 1 0 0 1 1.414-1.414L5.88 4.464a1 1 0 0 1 0 1.415z" fill="#343a4070" />
    <path d="M2.293 13.607a1 1 0 0 1 0-1.415l2.121-2.12a1 1 0 1 1 1.414 1.413l-2.12 2.122a1 1 0 0 1-1.415 0z" fill="#343a4050" />
    <path d="M10.071 5.828a1 1 0 0 1 0-1.414l2.121-2.121a1 1 0 1 1 1.414 1.414l-2.12 2.121a1 1 0 0 1-1.415 0z" fill="#343a4010" />
  </g>
</svg>
