<?xml version="1.0" encoding="UTF-8"?>
<svg id="Layer_1" xmlns="http://www.w3.org/2000/svg" version="1.1" viewBox="0 0 1024 1024">
  <!-- Generator: Adobe Illustrator 30.1.0, SVG Export Plug-In . SVG Version: 2.1.1 Build 136)  -->
  <path d="M896.02,498.64c-.02-.08-.06-.14-.08-.22-.4-.98-.84-1.94-1.34-2.86-.06-.12-.1-.24-.16-.34-.52-.96-1.08-1.9-1.66-2.82-.04-.08-.08-.16-.14-.22-1.4-2.1-3-4.06-4.8-5.82l-97.72-97.72c-14.06-14.06-36.86-14.06-50.92,0s-14.06,36.86,0,50.92l36.46,36.46h-307.94v71.98h307.92l-36.46,36.46c-14.06,14.06-14.06,36.86,0,50.92,7.02,7.02,16.24,10.54,25.46,10.54s18.42-3.52,25.46-10.54l97.7-97.7c1.8-1.78,3.42-3.72,4.82-5.84.04-.06.06-.12.1-.18.6-.92,1.18-1.88,1.7-2.86.06-.1.1-.22.16-.32.48-.94.94-1.9,1.34-2.9.02-.06.04-.14.08-.2,1.66-4.14,2.6-8.64,2.6-13.38s-.94-9.22-2.58-13.36h0Z"/>
</svg>