<?xml version="1.0" encoding="UTF-8"?>
<svg id="Layer_1" xmlns="http://www.w3.org/2000/svg" version="1.1" viewBox="0 0 1024 1024">
  <!-- Generator: Adobe Illustrator 30.1.0, SVG Export Plug-In . SVG Version: 2.1.1 Build 136)  -->
  <path d="M905.66,4H118.34C55.3,4,4,55.3,4,118.34v787.32c0,63.04,51.3,114.34,114.34,114.34h787.32c63.04,0,114.34-51.3,114.34-114.34V118.34c0-63.04-51.3-114.34-114.34-114.34h0ZM948.02,905.66h-.02c0,23.34-19,42.34-42.34,42.34H118.34c-23.34,0-42.34-19-42.34-42.34V118.34c0-23.34,19-42.34,42.34-42.34h787.34c23.34,0,42.34,19,42.34,42.34v787.32h0Z"/>
</svg>