<svg xmlns="http://www.w3.org/2000/svg" viewBox="0 0 100 100" style="enable-background:new 0 0 512 512" xml:space="preserve">
  <path d="M95.073 31.841a44.006 44.006 0 0 0-9.023-13.038C77.718 10.471 66.639 5.881 54.854 5.881c-22.674 0-41.401 17.194-43.844 39.227l-3.154-3.154a3.998 3.998 0 0 0-5.656 0 3.999 3.999 0 0 0 0 5.657l10.14 10.141a4.001 4.001 0 0 0 5.656.001l10.141-10.141a4 4 0 1 0-5.656-5.657l-3.443 3.443c2.27-17.749 17.461-31.516 35.817-31.516 9.647 0 18.717 3.757 25.539 10.579a36.052 36.052 0 0 1 7.39 10.676 35.848 35.848 0 0 1 3.188 14.864c0 19.916-16.202 36.119-36.117 36.119-9.646 0-18.714-3.755-25.535-10.574a4 4 0 0 0-5.656 5.658c8.333 8.329 19.41 12.916 31.191 12.916 24.326 0 44.117-19.792 44.117-44.119 0-6.326-1.312-12.435-3.899-18.16z" fill="#343a40" data-original="#000000"/>
  <path d="M64.999 70.501a3.99 3.99 0 0 1-2.828-1.171l-10.26-10.26a4.002 4.002 0 0 1-1.172-2.829V30a4 4 0 0 1 8 0v24.584l9.088 9.088a3.999 3.999 0 0 1-2.828 6.829z" fill="#343a40" data-original="#000000"/>
</svg>
