<svg xmlns="http://www.w3.org/2000/svg" version="1.1" xmlns:xlink="http://www.w3.org/1999/xlink" width="512" height="512" x="0" y="0" viewBox="0 0 128 128" style="enable-background:new 0 0 512 512" xml:space="preserve" class="">
  <g>
    <path d="M64 88c-13.234 0-24-10.766-24-24V32C40 18.766 50.766 8 64 8s24 10.766 24 24v32c0 13.234-10.766 24-24 24zm0-72c-8.822 0-16 7.178-16 16v32c0 8.822 7.178 16 16 16s16-7.178 16-16V32c0-8.822-7.178-16-16-16zm36 40a4 4 0 0 0-4 4v4c0 17.645-14.355 32-32 32S32 81.645 32 64v-4a4 4 0 0 0-8 0v4c0 20.707 15.815 37.784 36 39.797V112h-8a4 4 0 0 0 0 8h24a4 4 0 0 0 0-8h-8v-8.203c20.185-2.014 36-19.091 36-39.797v-4a4 4 0 0 0-4-4z" fill="#212529" opacity="1" data-original="#000000"></path>
  </g>
</svg>
